<svg width="1282" height="800" viewBox="0 0 1282 800" fill="none" xmlns="http://www.w3.org/2000/svg">
<g clip-path="url(#clip0_3156_1017)">
<rect width="1282" height="800" fill="black"/>
<g style="mix-blend-mode:hard-light" filter="url(#filter0_f_3156_1017)">
<path d="M-3.16458 146.008C29.6898 -17.963 189.115 -140.687 420.857 -206.342C652.487 -271.966 956.071 -280.473 1276.71 -216.26C1276.79 -216.244 1276.87 -216.229 1276.95 -216.214L1277.34 -218.175C956.365 -282.487 652.362 -274.009 420.312 -208.267C188.32 -142.54 27.9526 -19.4729 -5.12561 145.615C-16.5867 202.815 -12.0026 261.248 6.73541 319.432C-33.9919 337.046 -69.9195 356.42 -100.474 377.481C-171.882 426.703 -214.052 485.223 -219.393 552.104C-224.73 618.924 -196.886 688.131 -139.848 755.063C-82.8103 821.995 3.47519 886.721 115.197 944.628C338.646 1060.44 664.007 1149.07 1061.18 1173.47L1061.3 1171.47C1061.18 1171.47 1061.07 1171.46 1060.95 1171.45C664.145 1147.03 339.196 1058.48 116.118 942.852C4.54362 885.022 -81.5066 820.441 -138.326 753.765C-195.146 687.089 -222.681 618.387 -217.4 552.263C-212.124 486.2 -170.465 428.155 -99.3392 379.128C-68.9476 358.179 -33.1955 338.891 7.35585 321.343C43.0738 430.439 128.489 538.607 251.132 636.086C439.939 786.155 717.209 911.101 1038.18 975.413L1038.58 973.452C717.847 909.189 440.888 784.354 252.376 634.52C129.798 537.092 44.7134 429.183 9.20354 320.546C63.1348 297.361 125.479 277.234 194.931 260.346C440.23 200.7 773.942 181.526 1138.06 210.606L1138.22 208.612C773.963 179.521 440.025 198.691 194.458 258.403C125.011 275.289 62.6116 295.423 8.58414 318.635C-10.0118 260.792 -14.5357 202.759 -3.16458 146.008Z" fill="url(#paint0_linear_3156_1017)"/>
<path d="M420.857 -206.342C189.115 -140.687 29.6898 -17.963 -3.16458 146.008C-14.5357 202.759 -10.0118 260.792 8.58414 318.635C62.6116 295.423 125.011 275.289 194.458 258.403C440.025 198.691 773.963 179.521 1138.22 208.612L1276.71 -216.26C956.071 -280.473 652.487 -271.966 420.857 -206.342Z" fill="url(#paint1_linear_3156_1017)"/>
<path d="M116.118 942.852C339.196 1058.48 664.145 1147.03 1060.95 1171.45L1038.58 973.452L1038.18 975.413C717.209 911.101 439.939 786.155 251.132 636.086C128.489 538.607 43.0738 430.439 7.35585 321.343C-33.1955 338.891 -68.9476 358.179 -99.3392 379.128C-170.465 428.155 -212.124 486.2 -217.4 552.263C-222.681 618.387 -195.146 687.089 -138.326 753.765C-81.5066 820.441 4.54362 885.022 116.118 942.852Z" fill="url(#paint2_linear_3156_1017)"/>
</g>
<g style="mix-blend-mode:soft-light" opacity="0.6">
<path d="M-3.16458 146.008C29.6898 -17.963 189.115 -140.687 420.857 -206.342C652.487 -271.966 956.071 -280.473 1276.71 -216.26C1276.79 -216.244 1276.87 -216.229 1276.95 -216.214L1277.34 -218.175C956.365 -282.487 652.362 -274.009 420.312 -208.267C188.32 -142.54 27.9526 -19.4729 -5.12561 145.615C-16.5867 202.815 -12.0026 261.248 6.73541 319.432C-33.9919 337.046 -69.9195 356.42 -100.474 377.481C-171.882 426.703 -214.052 485.223 -219.393 552.104C-224.73 618.924 -196.886 688.131 -139.848 755.063C-82.8103 821.995 3.47519 886.721 115.197 944.628C338.646 1060.44 664.007 1149.07 1061.18 1173.47L1061.3 1171.47C1061.18 1171.47 1061.07 1171.46 1060.95 1171.45C664.145 1147.03 339.196 1058.48 116.118 942.852C4.54362 885.022 -81.5066 820.441 -138.326 753.765C-195.146 687.089 -222.681 618.387 -217.4 552.263C-212.124 486.2 -170.465 428.155 -99.3392 379.128C-68.9476 358.179 -33.1955 338.891 7.35585 321.343C43.0738 430.439 128.489 538.607 251.132 636.086C439.939 786.155 717.209 911.101 1038.18 975.413L1038.58 973.452C717.847 909.189 440.888 784.354 252.376 634.52C129.798 537.092 44.7134 429.183 9.20354 320.546C63.1348 297.361 125.479 277.234 194.931 260.346C440.23 200.7 773.942 181.526 1138.06 210.606L1138.22 208.612C773.963 179.521 440.025 198.691 194.458 258.403C125.011 275.289 62.6116 295.423 8.58414 318.635C-10.0118 260.792 -14.5357 202.759 -3.16458 146.008Z" fill="url(#paint3_linear_3156_1017)"/>
<path d="M420.857 -206.342C189.115 -140.687 29.6898 -17.963 -3.16458 146.008C-14.5357 202.759 -10.0118 260.792 8.58414 318.635C62.6116 295.423 125.011 275.289 194.458 258.403C440.025 198.691 773.963 179.521 1138.22 208.612L1276.71 -216.26C956.071 -280.473 652.487 -271.966 420.857 -206.342Z" fill="url(#paint4_linear_3156_1017)"/>
<path d="M116.118 942.852C339.196 1058.48 664.145 1147.03 1060.95 1171.45L1038.58 973.452L1038.18 975.413C717.209 911.101 439.939 786.155 251.132 636.086C128.489 538.607 43.0738 430.439 7.35585 321.343C-33.1955 338.891 -68.9476 358.179 -99.3392 379.128C-170.465 428.155 -212.124 486.2 -217.4 552.263C-222.681 618.387 -195.146 687.089 -138.326 753.765C-81.5066 820.441 4.54362 885.022 116.118 942.852Z" fill="url(#paint5_linear_3156_1017)"/>
</g>
<g style="mix-blend-mode:soft-light" opacity="0.6">
<path d="M-3.16458 146.008C29.6898 -17.963 189.115 -140.687 420.857 -206.342C652.487 -271.966 956.071 -280.473 1276.71 -216.26C1276.79 -216.244 1276.87 -216.229 1276.95 -216.214L1277.34 -218.175C956.365 -282.487 652.362 -274.009 420.312 -208.267C188.32 -142.54 27.9526 -19.4729 -5.12561 145.615C-16.5867 202.815 -12.0026 261.248 6.73541 319.432C-33.9919 337.046 -69.9195 356.42 -100.474 377.481C-171.882 426.703 -214.052 485.223 -219.393 552.104C-224.73 618.924 -196.886 688.131 -139.848 755.063C-82.8103 821.995 3.47519 886.721 115.197 944.628C338.646 1060.44 664.007 1149.07 1061.18 1173.47L1061.3 1171.47C1061.18 1171.47 1061.07 1171.46 1060.95 1171.45C664.145 1147.03 339.196 1058.48 116.118 942.852C4.54362 885.022 -81.5066 820.441 -138.326 753.765C-195.146 687.089 -222.681 618.387 -217.4 552.263C-212.124 486.2 -170.465 428.155 -99.3392 379.128C-68.9476 358.179 -33.1955 338.891 7.35585 321.343C43.0738 430.439 128.489 538.607 251.132 636.086C439.939 786.155 717.209 911.101 1038.18 975.413L1038.58 973.452C717.847 909.189 440.888 784.354 252.376 634.52C129.798 537.092 44.7134 429.183 9.20354 320.546C63.1348 297.361 125.479 277.234 194.931 260.346C440.23 200.7 773.942 181.526 1138.06 210.606L1138.22 208.612C773.963 179.521 440.025 198.691 194.458 258.403C125.011 275.289 62.6116 295.423 8.58414 318.635C-10.0118 260.792 -14.5357 202.759 -3.16458 146.008Z" fill="url(#paint6_linear_3156_1017)"/>
<path d="M420.857 -206.342C189.115 -140.687 29.6898 -17.963 -3.16458 146.008C-14.5357 202.759 -10.0118 260.792 8.58414 318.635C62.6116 295.423 125.011 275.289 194.458 258.403C440.025 198.691 773.963 179.521 1138.22 208.612L1276.71 -216.26C956.071 -280.473 652.487 -271.966 420.857 -206.342Z" fill="url(#paint7_linear_3156_1017)"/>
<path d="M116.118 942.852C339.196 1058.48 664.145 1147.03 1060.95 1171.45L1038.58 973.452L1038.18 975.413C717.209 911.101 439.939 786.155 251.132 636.086C128.489 538.607 43.0738 430.439 7.35585 321.343C-33.1955 338.891 -68.9476 358.179 -99.3392 379.128C-170.465 428.155 -212.124 486.2 -217.4 552.263C-222.681 618.387 -195.146 687.089 -138.326 753.765C-81.5066 820.441 4.54362 885.022 116.118 942.852Z" fill="url(#paint8_linear_3156_1017)"/>
</g>
<g style="mix-blend-mode:hue" opacity="0.7">
<path d="M-3.16458 146.008C29.6898 -17.963 189.115 -140.687 420.857 -206.342C652.487 -271.966 956.071 -280.473 1276.71 -216.26C1276.79 -216.244 1276.87 -216.229 1276.95 -216.214L1277.34 -218.175C956.365 -282.487 652.362 -274.009 420.312 -208.267C188.32 -142.54 27.9526 -19.4729 -5.12561 145.615C-16.5867 202.815 -12.0026 261.248 6.73541 319.432C-33.9919 337.046 -69.9195 356.42 -100.474 377.481C-171.882 426.703 -214.052 485.223 -219.393 552.104C-224.73 618.924 -196.886 688.131 -139.848 755.063C-82.8103 821.995 3.47519 886.721 115.197 944.628C338.646 1060.44 664.007 1149.07 1061.18 1173.47L1061.3 1171.47C1061.18 1171.47 1061.07 1171.46 1060.95 1171.45C664.145 1147.03 339.196 1058.48 116.118 942.852C4.54362 885.022 -81.5066 820.441 -138.326 753.765C-195.146 687.089 -222.681 618.387 -217.4 552.263C-212.124 486.2 -170.465 428.155 -99.3392 379.128C-68.9476 358.179 -33.1955 338.891 7.35585 321.343C43.0738 430.439 128.489 538.607 251.132 636.086C439.939 786.155 717.209 911.101 1038.18 975.413L1038.58 973.452C717.847 909.189 440.888 784.354 252.376 634.52C129.798 537.092 44.7134 429.183 9.20354 320.546C63.1348 297.361 125.479 277.234 194.931 260.346C440.23 200.7 773.942 181.526 1138.06 210.606L1138.22 208.612C773.963 179.521 440.025 198.691 194.458 258.403C125.011 275.289 62.6116 295.423 8.58414 318.635C-10.0118 260.792 -14.5357 202.759 -3.16458 146.008Z" fill="url(#paint9_linear_3156_1017)"/>
<path d="M420.857 -206.342C189.115 -140.687 29.6898 -17.963 -3.16458 146.008C-14.5357 202.759 -10.0118 260.792 8.58414 318.635C62.6116 295.423 125.011 275.289 194.458 258.403C440.025 198.691 773.963 179.521 1138.22 208.612L1276.71 -216.26C956.071 -280.473 652.487 -271.966 420.857 -206.342Z" fill="url(#paint10_linear_3156_1017)"/>
<path d="M116.118 942.852C339.196 1058.48 664.145 1147.03 1060.95 1171.45L1038.58 973.452L1038.18 975.413C717.209 911.101 439.939 786.155 251.132 636.086C128.489 538.607 43.0738 430.439 7.35585 321.343C-33.1955 338.891 -68.9476 358.179 -99.3392 379.128C-170.465 428.155 -212.124 486.2 -217.4 552.263C-222.681 618.387 -195.146 687.089 -138.326 753.765C-81.5066 820.441 4.54362 885.022 116.118 942.852Z" fill="url(#paint11_linear_3156_1017)"/>
</g>
<g style="mix-blend-mode:soft-light">
<path d="M-3.16458 146.008C29.6898 -17.963 189.115 -140.687 420.857 -206.342C652.487 -271.966 956.071 -280.473 1276.71 -216.26C1276.79 -216.244 1276.87 -216.229 1276.95 -216.214L1277.34 -218.175C956.365 -282.487 652.362 -274.009 420.312 -208.267C188.32 -142.54 27.9526 -19.4729 -5.12561 145.615C-16.5867 202.815 -12.0026 261.248 6.73541 319.432C-33.9919 337.046 -69.9195 356.42 -100.474 377.481C-171.882 426.703 -214.052 485.223 -219.393 552.104C-224.73 618.924 -196.886 688.131 -139.848 755.063C-82.8103 821.995 3.47519 886.721 115.197 944.628C338.646 1060.44 664.007 1149.07 1061.18 1173.47L1061.3 1171.47C1061.18 1171.47 1061.07 1171.46 1060.95 1171.45C664.145 1147.03 339.196 1058.48 116.118 942.852C4.54362 885.022 -81.5066 820.441 -138.326 753.765C-195.146 687.089 -222.681 618.387 -217.4 552.263C-212.124 486.2 -170.465 428.155 -99.3392 379.128C-68.9476 358.179 -33.1955 338.891 7.35585 321.343C43.0738 430.439 128.489 538.607 251.132 636.086C439.939 786.155 717.209 911.101 1038.18 975.413L1038.58 973.452C717.847 909.189 440.888 784.354 252.376 634.52C129.798 537.092 44.7134 429.183 9.20354 320.546C63.1348 297.361 125.479 277.234 194.931 260.346C440.23 200.7 773.942 181.526 1138.06 210.606L1138.22 208.612C773.963 179.521 440.025 198.691 194.458 258.403C125.011 275.289 62.6116 295.423 8.58414 318.635C-10.0118 260.792 -14.5357 202.759 -3.16458 146.008Z" fill="url(#paint12_linear_3156_1017)" fill-opacity="0.3"/>
<path d="M420.857 -206.342C189.115 -140.687 29.6898 -17.963 -3.16458 146.008C-14.5357 202.759 -10.0118 260.792 8.58414 318.635C62.6116 295.423 125.011 275.289 194.458 258.403C440.025 198.691 773.963 179.521 1138.22 208.612L1276.71 -216.26C956.071 -280.473 652.487 -271.966 420.857 -206.342Z" fill="url(#paint13_linear_3156_1017)" fill-opacity="0.3"/>
<path d="M116.118 942.852C339.196 1058.48 664.145 1147.03 1060.95 1171.45L1038.58 973.452L1038.18 975.413C717.209 911.101 439.939 786.155 251.132 636.086C128.489 538.607 43.0738 430.439 7.35585 321.343C-33.1955 338.891 -68.9476 358.179 -99.3392 379.128C-170.465 428.155 -212.124 486.2 -217.4 552.263C-222.681 618.387 -195.146 687.089 -138.326 753.765C-81.5066 820.441 4.54362 885.022 116.118 942.852Z" fill="url(#paint14_linear_3156_1017)" fill-opacity="0.3"/>
</g>
<g style="mix-blend-mode:overlay" filter="url(#filter1_f_3156_1017)">
<path d="M1043.24 974.435C401.534 845.859 -65.2204 474.872 0.712222 145.813C66.6448 -183.245 640.297 -345.768 1282 -217.192" stroke="#B1DEFF" stroke-width="3"/>
</g>
<g style="mix-blend-mode:soft-light" filter="url(#filter2_f_3156_1017)">
<path d="M1035.24 974.435C393.534 845.859 -73.2204 474.872 -7.28778 145.813C58.6448 -183.245 632.297 -345.768 1274 -217.192" stroke="white" stroke-width="28"/>
</g>
<g style="mix-blend-mode:overlay" filter="url(#filter3_f_3156_1017)">
<path d="M1043.2 973.626C403.726 845.496 -61.2203 474.872 4.71226 145.813C70.6448 -183.245 642.489 -346.131 1281.96 -218.001" stroke="white"/>
</g>
<g style="mix-blend-mode:overlay" filter="url(#filter4_f_3156_1017)">
<path d="M1027.24 974.435C385.534 845.859 -81.2204 474.872 -15.2878 145.813C50.6448 -183.245 624.297 -345.768 1266 -217.192" stroke="white" stroke-width="28"/>
</g>
<g style="mix-blend-mode:overlay" filter="url(#filter5_f_3156_1017)">
<path d="M1003.24 998.435C361.534 869.859 -105.22 498.872 -39.2878 169.813C26.6448 -159.245 600.297 -321.768 1242 -193.192" stroke="white" stroke-width="8"/>
</g>
<g style="mix-blend-mode:soft-light" filter="url(#filter6_f_3156_1017)">
<path d="M974.769 1099.71C333.066 971.132 -135.681 610.088 -72.2054 293.294C-8.73022 -23.5002 562.93 -176.081 1204.63 -47.5046" stroke="#B4DFFF" stroke-width="8"/>
</g>
<g style="mix-blend-mode:overlay" filter="url(#filter7_f_3156_1017)">
<path d="M974.769 1099.71C333.066 971.132 -135.681 610.088 -72.2054 293.294C-8.73022 -23.5002 562.93 -176.081 1204.63 -47.5046" stroke="#B4DFFF"/>
</g>
<g style="mix-blend-mode:overlay" filter="url(#filter8_f_3156_1017)">
<path d="M958.769 1107.71C317.066 979.132 -151.681 618.088 -88.2054 301.294C-24.7302 -15.5002 546.93 -168.081 1188.63 -39.5046" stroke="#B4DFFF"/>
</g>
<g style="mix-blend-mode:overlay" filter="url(#filter9_f_3156_1017)">
<path d="M962.724 1119.97C321.021 991.389 -148.61 634.765 -86.2275 323.422C-23.8447 12.0802 546.93 -136.081 1188.63 -7.50456" stroke="#B4DFFF"/>
</g>
<g style="mix-blend-mode:overlay" filter="url(#filter10_f_3156_1017)">
<path d="M966.769 1075.71C325.066 947.132 -143.681 586.088 -80.2054 269.294C-16.7302 -47.5002 554.93 -200.081 1196.63 -71.5046" stroke="#B4DFFF"/>
</g>
<g style="mix-blend-mode:soft-light" filter="url(#filter11_f_3156_1017)">
<path d="M984.207 1068.6C342.504 940.025 -128.355 589.526 -67.486 285.74C-6.6173 -18.0454 562.93 -160.081 1204.63 -31.5046" stroke="#B4DFFF" stroke-width="8"/>
</g>
<g style="mix-blend-mode:overlay" filter="url(#filter12_f_3156_1017)">
<path d="M906.905 1198.97C265.202 1070.4 -205.791 720.569 -145.088 417.61C-84.3853 114.651 485.027 -26.7137 1126.73 101.863" stroke="url(#paint15_linear_3156_1017)" stroke-width="3"/>
</g>
<g style="mix-blend-mode:overlay" filter="url(#filter13_f_3156_1017)">
<path d="M1066.1 1172.48C271.979 1123.45 -235.109 822.253 -214.23 560.823C-193.351 299.394 413.333 167.591 1141.7 225.761" stroke="#B1DEFF" stroke-width="3"/>
</g>
<g style="mix-blend-mode:hard-light" opacity="0.7" filter="url(#filter14_f_3156_1017)">
<path d="M1066.1 1172.48C271.979 1123.45 -235.109 822.253 -214.23 560.823C-193.351 299.394 413.333 167.591 1141.7 225.761" stroke="url(#paint16_linear_3156_1017)" stroke-width="4"/>
</g>
<g style="mix-blend-mode:overlay" opacity="0.6" filter="url(#filter15_f_3156_1017)">
<path d="M1066.1 1172.48C271.979 1123.45 -235.109 822.253 -214.23 560.823C-193.351 299.394 413.333 167.591 1141.7 225.761" stroke="white" stroke-width="2"/>
</g>
<g style="mix-blend-mode:overlay" filter="url(#filter16_f_3156_1017)">
<path d="M1043.2 973.626C403.726 845.496 -61.2203 474.872 4.71226 145.813C70.6448 -183.245 642.489 -346.131 1281.96 -218.001" stroke="url(#paint17_linear_3156_1017)" stroke-width="130"/>
</g>
<g style="mix-blend-mode:soft-light" opacity="0.4" filter="url(#filter17_f_3156_1017)">
<path d="M963.199 949.626C323.726 821.496 -141.22 450.872 -75.2877 121.813C-9.35516 -207.245 562.489 -370.131 1201.96 -242.001" stroke="url(#paint18_linear_3156_1017)" stroke-width="130"/>
</g>
<g filter="url(#filter18_f_3156_1017)">
<circle cx="1287.96" cy="-2" r="365" fill="black"/>
</g>
<g filter="url(#filter19_f_3156_1017)">
<ellipse cx="656.461" cy="1219.5" rx="392.5" ry="221.5" fill="black"/>
</g>
</g>
<defs>
<filter id="filter0_f_3156_1017" x="-380.039" y="-422.234" width="1817.38" height="1755.7" filterUnits="userSpaceOnUse" color-interpolation-filters="sRGB">
<feFlood flood-opacity="0" result="BackgroundImageFix"/>
<feBlend mode="normal" in="SourceGraphic" in2="BackgroundImageFix" result="shape"/>
<feGaussianBlur stdDeviation="80" result="effect1_foregroundBlur_3156_1017"/>
</filter>
<filter id="filter1_f_3156_1017" x="-22.9961" y="-278.734" width="1321.29" height="1270.64" filterUnits="userSpaceOnUse" color-interpolation-filters="sRGB">
<feFlood flood-opacity="0" result="BackgroundImageFix"/>
<feBlend mode="normal" in="SourceGraphic" in2="BackgroundImageFix" result="shape"/>
<feGaussianBlur stdDeviation="8" result="effect1_foregroundBlur_3156_1017"/>
</filter>
<filter id="filter2_f_3156_1017" x="-55.5156" y="-303.234" width="1360.27" height="1319.4" filterUnits="userSpaceOnUse" color-interpolation-filters="sRGB">
<feFlood flood-opacity="0" result="BackgroundImageFix"/>
<feBlend mode="normal" in="SourceGraphic" in2="BackgroundImageFix" result="shape"/>
<feGaussianBlur stdDeviation="14" result="effect1_foregroundBlur_3156_1017"/>
</filter>
<filter id="filter3_f_3156_1017" x="-6.01953" y="-266.25" width="1292.08" height="1244.37" filterUnits="userSpaceOnUse" color-interpolation-filters="sRGB">
<feFlood flood-opacity="0" result="BackgroundImageFix"/>
<feBlend mode="normal" in="SourceGraphic" in2="BackgroundImageFix" result="shape"/>
<feGaussianBlur stdDeviation="2" result="effect1_foregroundBlur_3156_1017"/>
</filter>
<filter id="filter4_f_3156_1017" x="-87.5156" y="-327.234" width="1408.27" height="1367.4" filterUnits="userSpaceOnUse" color-interpolation-filters="sRGB">
<feFlood flood-opacity="0" result="BackgroundImageFix"/>
<feBlend mode="normal" in="SourceGraphic" in2="BackgroundImageFix" result="shape"/>
<feGaussianBlur stdDeviation="26" result="effect1_foregroundBlur_3156_1017"/>
</filter>
<filter id="filter5_f_3156_1017" x="-88.5" y="-280.234" width="1370.29" height="1321.59" filterUnits="userSpaceOnUse" color-interpolation-filters="sRGB">
<feFlood flood-opacity="0" result="BackgroundImageFix"/>
<feBlend mode="normal" in="SourceGraphic" in2="BackgroundImageFix" result="shape"/>
<feGaussianBlur stdDeviation="19.5" result="effect1_foregroundBlur_3156_1017"/>
</filter>
<filter id="filter6_f_3156_1017" x="-97.9688" y="-113.109" width="1319.39" height="1232.74" filterUnits="userSpaceOnUse" color-interpolation-filters="sRGB">
<feFlood flood-opacity="0" result="BackgroundImageFix"/>
<feBlend mode="normal" in="SourceGraphic" in2="BackgroundImageFix" result="shape"/>
<feGaussianBlur stdDeviation="8" result="effect1_foregroundBlur_3156_1017"/>
</filter>
<filter id="filter7_f_3156_1017" x="-82.4609" y="-97.6094" width="1291.19" height="1201.8" filterUnits="userSpaceOnUse" color-interpolation-filters="sRGB">
<feFlood flood-opacity="0" result="BackgroundImageFix"/>
<feBlend mode="normal" in="SourceGraphic" in2="BackgroundImageFix" result="shape"/>
<feGaussianBlur stdDeviation="2" result="effect1_foregroundBlur_3156_1017"/>
</filter>
<filter id="filter8_f_3156_1017" x="-98.4609" y="-89.6094" width="1291.19" height="1201.8" filterUnits="userSpaceOnUse" color-interpolation-filters="sRGB">
<feFlood flood-opacity="0" result="BackgroundImageFix"/>
<feBlend mode="normal" in="SourceGraphic" in2="BackgroundImageFix" result="shape"/>
<feGaussianBlur stdDeviation="2" result="effect1_foregroundBlur_3156_1017"/>
</filter>
<filter id="filter9_f_3156_1017" x="-96.2891" y="-58.3438" width="1289.02" height="1182.8" filterUnits="userSpaceOnUse" color-interpolation-filters="sRGB">
<feFlood flood-opacity="0" result="BackgroundImageFix"/>
<feBlend mode="normal" in="SourceGraphic" in2="BackgroundImageFix" result="shape"/>
<feGaussianBlur stdDeviation="2" result="effect1_foregroundBlur_3156_1017"/>
</filter>
<filter id="filter10_f_3156_1017" x="-90.4609" y="-121.609" width="1291.19" height="1201.8" filterUnits="userSpaceOnUse" color-interpolation-filters="sRGB">
<feFlood flood-opacity="0" result="BackgroundImageFix"/>
<feBlend mode="normal" in="SourceGraphic" in2="BackgroundImageFix" result="shape"/>
<feGaussianBlur stdDeviation="2" result="effect1_foregroundBlur_3156_1017"/>
</filter>
<filter id="filter11_f_3156_1017" x="-92.7891" y="-98.8984" width="1314.21" height="1187.42" filterUnits="userSpaceOnUse" color-interpolation-filters="sRGB">
<feFlood flood-opacity="0" result="BackgroundImageFix"/>
<feBlend mode="normal" in="SourceGraphic" in2="BackgroundImageFix" result="shape"/>
<feGaussianBlur stdDeviation="8" result="effect1_foregroundBlur_3156_1017"/>
</filter>
<filter id="filter12_f_3156_1017" x="-156.859" y="47.8516" width="1288.88" height="1157.59" filterUnits="userSpaceOnUse" color-interpolation-filters="sRGB">
<feFlood flood-opacity="0" result="BackgroundImageFix"/>
<feBlend mode="normal" in="SourceGraphic" in2="BackgroundImageFix" result="shape"/>
<feGaussianBlur stdDeviation="2.5" result="effect1_foregroundBlur_3156_1017"/>
</filter>
<filter id="filter13_f_3156_1017" x="-224.352" y="202.68" width="1374.18" height="979.297" filterUnits="userSpaceOnUse" color-interpolation-filters="sRGB">
<feFlood flood-opacity="0" result="BackgroundImageFix"/>
<feBlend mode="normal" in="SourceGraphic" in2="BackgroundImageFix" result="shape"/>
<feGaussianBlur stdDeviation="4" result="effect1_foregroundBlur_3156_1017"/>
</filter>
<filter id="filter14_f_3156_1017" x="-236.852" y="190.18" width="1398.71" height="1004.3" filterUnits="userSpaceOnUse" color-interpolation-filters="sRGB">
<feFlood flood-opacity="0" result="BackgroundImageFix"/>
<feBlend mode="normal" in="SourceGraphic" in2="BackgroundImageFix" result="shape"/>
<feGaussianBlur stdDeviation="10" result="effect1_foregroundBlur_3156_1017"/>
</filter>
<filter id="filter15_f_3156_1017" x="-218.852" y="208.18" width="1363.64" height="968.297" filterUnits="userSpaceOnUse" color-interpolation-filters="sRGB">
<feFlood flood-opacity="0" result="BackgroundImageFix"/>
<feBlend mode="normal" in="SourceGraphic" in2="BackgroundImageFix" result="shape"/>
<feGaussianBlur stdDeviation="1.5" result="effect1_foregroundBlur_3156_1017"/>
</filter>
<filter id="filter16_f_3156_1017" x="-100.609" y="-360.75" width="1429.34" height="1432.11" filterUnits="userSpaceOnUse" color-interpolation-filters="sRGB">
<feFlood flood-opacity="0" result="BackgroundImageFix"/>
<feBlend mode="normal" in="SourceGraphic" in2="BackgroundImageFix" result="shape"/>
<feGaussianBlur stdDeviation="17" result="effect1_foregroundBlur_3156_1017"/>
</filter>
<filter id="filter17_f_3156_1017" x="-228.609" y="-432.75" width="1525.34" height="1528.11" filterUnits="userSpaceOnUse" color-interpolation-filters="sRGB">
<feFlood flood-opacity="0" result="BackgroundImageFix"/>
<feBlend mode="normal" in="SourceGraphic" in2="BackgroundImageFix" result="shape"/>
<feGaussianBlur stdDeviation="41" result="effect1_foregroundBlur_3156_1017"/>
</filter>
<filter id="filter18_f_3156_1017" x="718.961" y="-571" width="1138" height="1138" filterUnits="userSpaceOnUse" color-interpolation-filters="sRGB">
<feFlood flood-opacity="0" result="BackgroundImageFix"/>
<feBlend mode="normal" in="SourceGraphic" in2="BackgroundImageFix" result="shape"/>
<feGaussianBlur stdDeviation="102" result="effect1_foregroundBlur_3156_1017"/>
</filter>
<filter id="filter19_f_3156_1017" x="59.9609" y="794" width="1193" height="851" filterUnits="userSpaceOnUse" color-interpolation-filters="sRGB">
<feFlood flood-opacity="0" result="BackgroundImageFix"/>
<feBlend mode="normal" in="SourceGraphic" in2="BackgroundImageFix" result="shape"/>
<feGaussianBlur stdDeviation="102" result="effect1_foregroundBlur_3156_1017"/>
</filter>
<linearGradient id="paint0_linear_3156_1017" x1="478.961" y1="-243.816" x2="372.463" y2="1071" gradientUnits="userSpaceOnUse">
<stop stop-color="#0094FF"/>
<stop offset="0.333531" stop-color="#0094FF" stop-opacity="0"/>
<stop offset="0.620358" stop-color="#0094FF"/>
<stop offset="0.959756" stop-color="#0094FF" stop-opacity="0"/>
</linearGradient>
<linearGradient id="paint1_linear_3156_1017" x1="478.961" y1="-243.816" x2="372.463" y2="1071" gradientUnits="userSpaceOnUse">
<stop stop-color="#0094FF"/>
<stop offset="0.333531" stop-color="#0094FF" stop-opacity="0"/>
<stop offset="0.620358" stop-color="#0094FF"/>
<stop offset="0.959756" stop-color="#0094FF" stop-opacity="0"/>
</linearGradient>
<linearGradient id="paint2_linear_3156_1017" x1="478.961" y1="-243.816" x2="372.463" y2="1071" gradientUnits="userSpaceOnUse">
<stop stop-color="#0094FF"/>
<stop offset="0.333531" stop-color="#0094FF" stop-opacity="0"/>
<stop offset="0.620358" stop-color="#0094FF"/>
<stop offset="0.959756" stop-color="#0094FF" stop-opacity="0"/>
</linearGradient>
<linearGradient id="paint3_linear_3156_1017" x1="478.961" y1="-243.816" x2="372.463" y2="1071" gradientUnits="userSpaceOnUse">
<stop stop-color="#0094FF"/>
<stop offset="0.333531" stop-color="#0094FF" stop-opacity="0"/>
<stop offset="0.620358" stop-color="#0094FF"/>
<stop offset="0.959756" stop-color="#0094FF" stop-opacity="0"/>
</linearGradient>
<linearGradient id="paint4_linear_3156_1017" x1="478.961" y1="-243.816" x2="372.463" y2="1071" gradientUnits="userSpaceOnUse">
<stop stop-color="#0094FF"/>
<stop offset="0.333531" stop-color="#0094FF" stop-opacity="0"/>
<stop offset="0.620358" stop-color="#0094FF"/>
<stop offset="0.959756" stop-color="#0094FF" stop-opacity="0"/>
</linearGradient>
<linearGradient id="paint5_linear_3156_1017" x1="478.961" y1="-243.816" x2="372.463" y2="1071" gradientUnits="userSpaceOnUse">
<stop stop-color="#0094FF"/>
<stop offset="0.333531" stop-color="#0094FF" stop-opacity="0"/>
<stop offset="0.620358" stop-color="#0094FF"/>
<stop offset="0.959756" stop-color="#0094FF" stop-opacity="0"/>
</linearGradient>
<linearGradient id="paint6_linear_3156_1017" x1="478.961" y1="-243.816" x2="372.463" y2="1071" gradientUnits="userSpaceOnUse">
<stop stop-color="#0094FF"/>
<stop offset="0.333531" stop-color="#0094FF" stop-opacity="0"/>
<stop offset="0.620358" stop-color="#0094FF"/>
<stop offset="0.959756" stop-color="#0094FF" stop-opacity="0"/>
</linearGradient>
<linearGradient id="paint7_linear_3156_1017" x1="478.961" y1="-243.816" x2="372.463" y2="1071" gradientUnits="userSpaceOnUse">
<stop stop-color="#0094FF"/>
<stop offset="0.333531" stop-color="#0094FF" stop-opacity="0"/>
<stop offset="0.620358" stop-color="#0094FF"/>
<stop offset="0.959756" stop-color="#0094FF" stop-opacity="0"/>
</linearGradient>
<linearGradient id="paint8_linear_3156_1017" x1="478.961" y1="-243.816" x2="372.463" y2="1071" gradientUnits="userSpaceOnUse">
<stop stop-color="#0094FF"/>
<stop offset="0.333531" stop-color="#0094FF" stop-opacity="0"/>
<stop offset="0.620358" stop-color="#0094FF"/>
<stop offset="0.959756" stop-color="#0094FF" stop-opacity="0"/>
</linearGradient>
<linearGradient id="paint9_linear_3156_1017" x1="478.961" y1="-243.816" x2="362.961" y2="1000.68" gradientUnits="userSpaceOnUse">
<stop stop-color="#0094FF"/>
<stop offset="0.364078" stop-color="#0094FF" stop-opacity="0"/>
<stop offset="0.620358" stop-color="#0094FF"/>
<stop offset="0.959756" stop-color="#0094FF" stop-opacity="0"/>
</linearGradient>
<linearGradient id="paint10_linear_3156_1017" x1="478.961" y1="-243.816" x2="362.961" y2="1000.68" gradientUnits="userSpaceOnUse">
<stop stop-color="#0094FF"/>
<stop offset="0.364078" stop-color="#0094FF" stop-opacity="0"/>
<stop offset="0.620358" stop-color="#0094FF"/>
<stop offset="0.959756" stop-color="#0094FF" stop-opacity="0"/>
</linearGradient>
<linearGradient id="paint11_linear_3156_1017" x1="478.961" y1="-243.816" x2="362.961" y2="1000.68" gradientUnits="userSpaceOnUse">
<stop stop-color="#0094FF"/>
<stop offset="0.364078" stop-color="#0094FF" stop-opacity="0"/>
<stop offset="0.620358" stop-color="#0094FF"/>
<stop offset="0.959756" stop-color="#0094FF" stop-opacity="0"/>
</linearGradient>
<linearGradient id="paint12_linear_3156_1017" x1="478.961" y1="-243.816" x2="362.961" y2="1000.68" gradientUnits="userSpaceOnUse">
<stop stop-color="#A3D8FF"/>
<stop offset="0.364078" stop-color="#0094FF" stop-opacity="0"/>
<stop offset="0.620358" stop-color="#0094FF"/>
<stop offset="0.959756" stop-color="#0094FF" stop-opacity="0"/>
</linearGradient>
<linearGradient id="paint13_linear_3156_1017" x1="478.961" y1="-243.816" x2="362.961" y2="1000.68" gradientUnits="userSpaceOnUse">
<stop stop-color="#A3D8FF"/>
<stop offset="0.364078" stop-color="#0094FF" stop-opacity="0"/>
<stop offset="0.620358" stop-color="#0094FF"/>
<stop offset="0.959756" stop-color="#0094FF" stop-opacity="0"/>
</linearGradient>
<linearGradient id="paint14_linear_3156_1017" x1="478.961" y1="-243.816" x2="362.961" y2="1000.68" gradientUnits="userSpaceOnUse">
<stop stop-color="#A3D8FF"/>
<stop offset="0.364078" stop-color="#0094FF" stop-opacity="0"/>
<stop offset="0.620358" stop-color="#0094FF"/>
<stop offset="0.959756" stop-color="#0094FF" stop-opacity="0"/>
</linearGradient>
<linearGradient id="paint15_linear_3156_1017" x1="428.068" y1="82.8493" x2="636.155" y2="1116.78" gradientUnits="userSpaceOnUse">
<stop stop-color="#0094FF"/>
<stop offset="1" stop-color="#0094FF"/>
</linearGradient>
<linearGradient id="paint16_linear_3156_1017" x1="606.463" y1="199.496" x2="1527.46" y2="185.996" gradientUnits="userSpaceOnUse">
<stop stop-color="#0094FF" stop-opacity="0.8"/>
<stop offset="1" stop-color="#0094FF"/>
</linearGradient>
<linearGradient id="paint17_linear_3156_1017" x1="555.461" y1="-222.502" x2="810.961" y2="919.998" gradientUnits="userSpaceOnUse">
<stop stop-color="white" stop-opacity="0"/>
<stop offset="0.440439" stop-color="white"/>
<stop offset="1" stop-color="white" stop-opacity="0"/>
</linearGradient>
<linearGradient id="paint18_linear_3156_1017" x1="299.961" y1="237.998" x2="730.961" y2="895.998" gradientUnits="userSpaceOnUse">
<stop stop-color="white"/>
<stop offset="0.292541" stop-color="white" stop-opacity="0"/>
<stop offset="0.672218" stop-color="white" stop-opacity="0"/>
</linearGradient>
<clipPath id="clip0_3156_1017">
<rect width="1282" height="800" fill="white"/>
</clipPath>
</defs>
</svg>
