<svg width="35" height="44" viewBox="0 0 35 44" fill="none" xmlns="http://www.w3.org/2000/svg">
<circle cx="17.2025" cy="9.68685" r="9.68685" fill="white"/>
<path d="M34.3396 31.5674C34.3396 39.0957 34.3396 39.0957 17.1698 39.0957C0 39.0957 0 39.0957 0 31.5674C0 31.5674 1.07163e-06 24.0391 17.1698 24.0391C34.3396 24.0391 34.3396 31.5674 34.3396 31.5674Z" fill="white"/>
<path d="M17.0367 42.0022L12.4141 38.6215L15.1876 26.0022H18.8858L21.6593 38.6215L17.0367 42.0022Z" fill="white"/>
<path d="M12.4141 22.0499L15.1876 26.0036H18.8858L21.6593 22.0499C18.0477 21.1852 16.0252 21.1774 12.4141 22.0499Z" fill="white"/>
<path d="M17.0367 42.0022L12.4141 38.6215L15.1876 26.0022H18.8858L21.6593 38.6215L17.0367 42.0022Z" stroke="#0A0A0A" stroke-width="2"/>
<path d="M12.4141 22.0499L15.1876 26.0036H18.8858L21.6593 22.0499C18.0477 21.1852 16.0252 21.1774 12.4141 22.0499Z" stroke="#0A0A0A" stroke-width="2"/>
</svg>
