<svg width="31" height="33" viewBox="0 0 31 33" fill="none" xmlns="http://www.w3.org/2000/svg">
<path d="M12.9032 25.4775C12.9032 29.1537 9.99758 32.1504 6.44623 32.1504C2.90565 32.1504 0 29.1537 0 25.4775C0 21.8013 2.90565 18.8047 6.44623 18.8047C9.99758 18.8047 12.9032 21.7902 12.9032 25.4775ZM10.837 25.4775C10.837 22.9822 8.86761 20.9436 6.44623 20.9436C4.03562 20.9436 2.06624 22.9822 2.06624 25.4775C2.06624 27.9729 4.04638 30.0227 6.44623 30.0227C8.85684 30.0227 10.837 27.9729 10.837 25.4775Z" fill="white"/>
<path d="M6.44623 13.3457C9.99758 13.3457 12.9032 10.3491 12.9032 6.67286C12.9032 2.98552 9.99758 0 6.44623 0C2.90565 0 0 2.98552 0 6.67286C0 10.3491 2.90565 13.3457 6.44623 13.3457Z" fill="white"/>
<path d="M17.9015 25.9365C17.9015 22.2603 20.8071 19.2637 24.3585 19.2637C27.899 19.2637 30.8047 22.2603 30.8047 25.9365C30.8047 29.6239 27.899 32.6094 24.3585 32.6094C20.8071 32.6094 17.9015 29.6239 17.9015 25.9365Z" fill="white"/>
<path fill-rule="evenodd" clip-rule="evenodd" d="M17.9015 7.13183C17.9015 3.45563 20.8071 0.458977 24.3585 0.458977C27.899 0.458977 30.8047 3.45563 30.8047 7.13183C30.8047 10.808 27.899 13.8047 24.3585 13.8047C20.8071 13.8047 17.9015 10.8192 17.9015 7.13183ZM24.3585 11.6658C21.9371 11.6658 19.9677 9.62719 19.9677 7.13183C19.9677 4.63647 21.9478 2.58672 24.3585 2.58672C26.7583 2.58672 28.7384 4.63647 28.7384 7.13183C28.7384 9.62719 26.7691 11.6658 24.3585 11.6658Z" fill="white"/>
</svg>
