<svg width="1023" height="1111" viewBox="0 0 1023 1111" fill="none" xmlns="http://www.w3.org/2000/svg">
<path d="M43.0864 593.998C43.0864 335.53 252.616 126 511.085 126C769.553 126 979.083 335.53 979.083 593.998C979.083 644.005 971.24 692.18 956.716 737.361H1019.14V822.386H919.668H102.502H2.92578V725.693H61.871C49.6443 683.92 43.0864 639.725 43.0864 593.998Z" fill="#2D648B" fill-opacity="0.2"/>
<path d="M667.953 872.703V819.031H256.102V942.703H597.953C636.613 942.703 667.953 911.363 667.953 872.703Z" fill="#333333"/>
<path d="M1017.96 819.031H485.941V929.703C485.941 936.883 491.761 942.703 498.941 942.703H1017.96V819.031Z" fill="#333333"/>
<circle cx="509.917" cy="600.233" r="350.999" fill="#333333"/>
<path d="M509.917 951.232C703.768 951.232 860.915 794.084 860.915 600.233C860.915 406.382 703.768 249.234 509.917 249.234C316.065 249.234 158.918 406.382 158.918 600.233L509.917 614.85V951.232Z" fill="#0094FF"/>
<circle cx="511.476" cy="594.007" r="233.999" fill="black"/>
<path d="M5.25 819.031V942.703H439.269V819.031H5.25Z" fill="#0094FF"/>
<g filter="url(#filter0_d_3156_1317)">
<rect x="404.102" y="774.781" width="213.319" height="213.319" rx="53" fill="#0094FF" stroke="black" stroke-width="6"/>
<path d="M461.02 838.781V821.327H467.907C469.231 821.327 470.358 821.58 471.29 822.085C472.222 822.585 472.932 823.281 473.421 824.173C473.915 825.06 474.162 826.082 474.162 827.241C474.162 828.401 473.912 829.423 473.412 830.31C472.912 831.196 472.188 831.886 471.239 832.381C470.296 832.875 469.154 833.122 467.813 833.122H463.424V830.165H467.216C467.927 830.165 468.512 830.043 468.972 829.798C469.438 829.548 469.785 829.205 470.012 828.767C470.245 828.324 470.361 827.815 470.361 827.241C470.361 826.662 470.245 826.156 470.012 825.724C469.785 825.287 469.438 824.949 468.972 824.71C468.506 824.466 467.915 824.344 467.199 824.344H464.711V838.781H461.02ZM480.122 821.327V838.781H476.491V821.327H480.122ZM486.763 839.028C485.928 839.028 485.184 838.884 484.53 838.594C483.877 838.298 483.36 837.864 482.979 837.29C482.604 836.71 482.417 835.989 482.417 835.125C482.417 834.398 482.55 833.787 482.817 833.293C483.084 832.798 483.448 832.401 483.908 832.099C484.368 831.798 484.891 831.571 485.476 831.418C486.067 831.264 486.687 831.156 487.334 831.094C488.096 831.014 488.709 830.94 489.175 830.872C489.641 830.798 489.979 830.69 490.189 830.548C490.4 830.406 490.505 830.196 490.505 829.918V829.866C490.505 829.327 490.334 828.909 489.993 828.614C489.658 828.318 489.181 828.17 488.562 828.17C487.908 828.17 487.388 828.315 487.002 828.605C486.616 828.889 486.36 829.247 486.235 829.679L482.877 829.406C483.047 828.611 483.383 827.923 483.883 827.344C484.383 826.759 485.027 826.31 485.817 825.997C486.613 825.679 487.533 825.52 488.579 825.52C489.306 825.52 490.002 825.605 490.667 825.776C491.337 825.946 491.931 826.21 492.448 826.568C492.971 826.926 493.383 827.386 493.684 827.949C493.985 828.506 494.135 829.173 494.135 829.952V838.781H490.692V836.966H490.59C490.38 837.375 490.099 837.736 489.746 838.048C489.394 838.355 488.971 838.597 488.476 838.773C487.982 838.943 487.411 839.028 486.763 839.028ZM487.803 836.523C488.337 836.523 488.809 836.418 489.218 836.207C489.627 835.991 489.948 835.702 490.181 835.338C490.414 834.974 490.53 834.562 490.53 834.102V832.713C490.417 832.787 490.26 832.855 490.062 832.918C489.868 832.974 489.65 833.028 489.405 833.08C489.161 833.125 488.917 833.168 488.672 833.207C488.428 833.241 488.206 833.273 488.008 833.301C487.581 833.364 487.209 833.463 486.891 833.599C486.573 833.736 486.326 833.92 486.15 834.153C485.974 834.381 485.885 834.665 485.885 835.006C485.885 835.5 486.064 835.878 486.422 836.139C486.786 836.395 487.246 836.523 487.803 836.523ZM500.583 831.213V838.781H496.952V825.69H500.412V828H500.566C500.856 827.239 501.341 826.636 502.023 826.193C502.705 825.744 503.532 825.52 504.503 825.52C505.412 825.52 506.205 825.719 506.881 826.116C507.557 826.514 508.083 827.082 508.458 827.821C508.833 828.554 509.02 829.429 509.02 830.446V838.781H505.39V831.094C505.395 830.293 505.191 829.668 504.776 829.219C504.361 828.764 503.79 828.537 503.063 828.537C502.574 828.537 502.143 828.642 501.768 828.852C501.398 829.062 501.108 829.369 500.898 829.773C500.694 830.17 500.589 830.651 500.583 831.213ZM515.513 831.213V838.781H511.882V825.69H515.342V828H515.496C515.785 827.239 516.271 826.636 516.953 826.193C517.635 825.744 518.461 825.52 519.433 825.52C520.342 825.52 521.135 825.719 521.811 826.116C522.487 826.514 523.013 827.082 523.388 827.821C523.763 828.554 523.95 829.429 523.95 830.446V838.781H520.319V831.094C520.325 830.293 520.121 829.668 519.706 829.219C519.291 828.764 518.72 828.537 517.993 828.537C517.504 828.537 517.072 828.642 516.697 828.852C516.328 829.062 516.038 829.369 515.828 829.773C515.623 830.17 515.518 830.651 515.513 831.213ZM526.812 838.781V825.69H530.442V838.781H526.812ZM528.635 824.003C528.096 824.003 527.633 823.824 527.246 823.466C526.866 823.102 526.675 822.668 526.675 822.162C526.675 821.662 526.866 821.233 527.246 820.875C527.633 820.511 528.096 820.33 528.635 820.33C529.175 820.33 529.635 820.511 530.016 820.875C530.402 821.233 530.596 821.662 530.596 822.162C530.596 822.668 530.402 823.102 530.016 823.466C529.635 823.824 529.175 824.003 528.635 824.003ZM536.981 831.213V838.781H533.351V825.69H536.811V828H536.964C537.254 827.239 537.74 826.636 538.422 826.193C539.103 825.744 539.93 825.52 540.902 825.52C541.811 825.52 542.603 825.719 543.28 826.116C543.956 826.514 544.481 827.082 544.856 827.821C545.231 828.554 545.419 829.429 545.419 830.446V838.781H541.788V831.094C541.794 830.293 541.589 829.668 541.175 829.219C540.76 828.764 540.189 828.537 539.461 828.537C538.973 828.537 538.541 828.642 538.166 828.852C537.797 829.062 537.507 829.369 537.297 829.773C537.092 830.17 536.987 830.651 536.981 831.213ZM554.178 843.963C553.002 843.963 551.993 843.801 551.153 843.477C550.317 843.159 549.653 842.724 549.158 842.173C548.664 841.622 548.343 841.003 548.195 840.315L551.553 839.864C551.655 840.125 551.817 840.369 552.039 840.597C552.26 840.824 552.553 841.006 552.917 841.142C553.286 841.284 553.735 841.355 554.263 841.355C555.053 841.355 555.704 841.162 556.215 840.776C556.732 840.395 556.991 839.756 556.991 838.858V836.463H556.837C556.678 836.827 556.439 837.17 556.121 837.494C555.803 837.818 555.394 838.082 554.894 838.287C554.394 838.491 553.797 838.594 553.104 838.594C552.121 838.594 551.226 838.366 550.42 837.912C549.618 837.452 548.979 836.75 548.502 835.807C548.03 834.858 547.795 833.659 547.795 832.21C547.795 830.727 548.036 829.489 548.519 828.494C549.002 827.5 549.644 826.756 550.445 826.261C551.252 825.767 552.135 825.52 553.096 825.52C553.829 825.52 554.442 825.645 554.937 825.895C555.431 826.139 555.829 826.446 556.13 826.815C556.437 827.179 556.672 827.537 556.837 827.889H556.974V825.69H560.579V838.909C560.579 840.023 560.306 840.955 559.76 841.705C559.215 842.455 558.459 843.017 557.493 843.392C556.533 843.773 555.428 843.963 554.178 843.963ZM554.255 835.866C554.84 835.866 555.334 835.722 555.738 835.432C556.147 835.136 556.459 834.716 556.675 834.17C556.897 833.619 557.008 832.96 557.008 832.193C557.008 831.426 556.9 830.761 556.684 830.199C556.468 829.631 556.155 829.19 555.746 828.878C555.337 828.565 554.84 828.409 554.255 828.409C553.658 828.409 553.155 828.571 552.746 828.895C552.337 829.213 552.028 829.656 551.817 830.224C551.607 830.793 551.502 831.449 551.502 832.193C551.502 832.949 551.607 833.602 551.817 834.153C552.033 834.699 552.343 835.122 552.746 835.423C553.155 835.719 553.658 835.866 554.255 835.866Z" fill="white"/>
<circle cx="513.345" cy="907.357" r="35.8724" stroke="white" stroke-width="6"/>
<path d="M498.91 910.949L506.989 917.525C509.124 919.263 512.262 918.948 514.009 916.821L530.008 897.344" stroke="white" stroke-width="6" stroke-linecap="round"/>
</g>
<g filter="url(#filter1_d_3156_1317)">
<rect x="685.816" y="774.781" width="213.319" height="213.319" rx="53" fill="#333333" stroke="black" stroke-width="6"/>
<path d="M737.789 821.327V838.781H734.099V821.327H737.789ZM744.388 831.213V838.781H740.757V825.69H744.217V828H744.371C744.66 827.239 745.146 826.636 745.828 826.193C746.51 825.744 747.336 825.52 748.308 825.52C749.217 825.52 750.01 825.719 750.686 826.116C751.362 826.514 751.888 827.082 752.263 827.821C752.638 828.554 752.825 829.429 752.825 830.446V838.781H749.194V831.094C749.2 830.293 748.996 829.668 748.581 829.219C748.166 828.764 747.595 828.537 746.868 828.537C746.379 828.537 745.947 828.642 745.572 828.852C745.203 829.062 744.913 829.369 744.703 829.773C744.498 830.17 744.393 830.651 744.388 831.213ZM761.601 839.037C760.26 839.037 759.107 838.753 758.141 838.185C757.181 837.611 756.442 836.815 755.925 835.798C755.414 834.781 755.158 833.611 755.158 832.287C755.158 830.946 755.417 829.77 755.934 828.759C756.456 827.741 757.198 826.949 758.158 826.381C759.118 825.807 760.26 825.52 761.584 825.52C762.726 825.52 763.726 825.727 764.584 826.142C765.442 826.557 766.121 827.139 766.621 827.889C767.121 828.639 767.397 829.52 767.448 830.531H764.022C763.925 829.878 763.67 829.352 763.255 828.955C762.846 828.551 762.309 828.349 761.644 828.349C761.081 828.349 760.59 828.503 760.17 828.81C759.755 829.111 759.431 829.551 759.198 830.131C758.965 830.71 758.849 831.412 758.849 832.236C758.849 833.071 758.962 833.781 759.189 834.366C759.422 834.952 759.749 835.398 760.17 835.705C760.59 836.011 761.081 836.165 761.644 836.165C762.059 836.165 762.431 836.08 762.76 835.909C763.096 835.739 763.371 835.491 763.587 835.168C763.809 834.838 763.954 834.443 764.022 833.983H767.448C767.391 834.983 767.118 835.864 766.63 836.625C766.147 837.381 765.479 837.972 764.627 838.398C763.775 838.824 762.766 839.037 761.601 839.037ZM769.773 838.781V825.69H773.292V827.974H773.429C773.667 827.162 774.068 826.548 774.63 826.134C775.193 825.713 775.841 825.503 776.574 825.503C776.755 825.503 776.952 825.514 777.162 825.537C777.372 825.56 777.557 825.591 777.716 825.631V828.852C777.545 828.801 777.309 828.756 777.008 828.716C776.707 828.676 776.432 828.656 776.182 828.656C775.648 828.656 775.17 828.773 774.75 829.006C774.335 829.233 774.005 829.551 773.761 829.96C773.523 830.369 773.403 830.841 773.403 831.375V838.781H769.773ZM784.949 839.037C783.603 839.037 782.444 838.764 781.472 838.219C780.506 837.668 779.762 836.889 779.239 835.884C778.716 834.872 778.455 833.676 778.455 832.295C778.455 830.949 778.716 829.767 779.239 828.75C779.762 827.733 780.498 826.94 781.447 826.372C782.401 825.804 783.52 825.52 784.804 825.52C785.668 825.52 786.472 825.659 787.216 825.938C787.966 826.21 788.62 826.622 789.177 827.173C789.739 827.724 790.177 828.418 790.489 829.253C790.802 830.082 790.958 831.054 790.958 832.168V833.165H779.904V830.915H787.54C787.54 830.392 787.427 829.929 787.199 829.526C786.972 829.122 786.657 828.807 786.253 828.58C785.856 828.347 785.393 828.23 784.864 828.23C784.313 828.23 783.824 828.358 783.398 828.614C782.978 828.864 782.648 829.202 782.41 829.628C782.171 830.048 782.049 830.517 782.043 831.034V833.173C782.043 833.821 782.162 834.381 782.401 834.852C782.645 835.324 782.989 835.688 783.432 835.943C783.876 836.199 784.401 836.327 785.009 836.327C785.412 836.327 785.782 836.27 786.117 836.156C786.452 836.043 786.739 835.872 786.978 835.645C787.216 835.418 787.398 835.139 787.523 834.81L790.881 835.031C790.711 835.838 790.361 836.543 789.833 837.145C789.31 837.741 788.634 838.207 787.804 838.543C786.981 838.872 786.029 839.037 784.949 839.037ZM793.327 838.781V825.69H796.787V828H796.941C797.214 827.233 797.668 826.628 798.304 826.185C798.941 825.741 799.702 825.52 800.589 825.52C801.486 825.52 802.251 825.744 802.881 826.193C803.512 826.636 803.932 827.239 804.143 828H804.279C804.546 827.25 805.029 826.651 805.728 826.202C806.432 825.747 807.265 825.52 808.225 825.52C809.447 825.52 810.438 825.909 811.199 826.688C811.966 827.46 812.35 828.557 812.35 829.977V838.781H808.728V830.693C808.728 829.966 808.535 829.42 808.148 829.057C807.762 828.693 807.279 828.511 806.699 828.511C806.04 828.511 805.526 828.722 805.157 829.142C804.787 829.557 804.603 830.105 804.603 830.787V838.781H801.083V830.616C801.083 829.974 800.898 829.463 800.529 829.082C800.165 828.702 799.685 828.511 799.089 828.511C798.685 828.511 798.322 828.614 797.998 828.818C797.679 829.017 797.427 829.298 797.239 829.662C797.052 830.02 796.958 830.44 796.958 830.923V838.781H793.327ZM821.184 839.037C819.837 839.037 818.678 838.764 817.706 838.219C816.741 837.668 815.996 836.889 815.474 835.884C814.951 834.872 814.689 833.676 814.689 832.295C814.689 830.949 814.951 829.767 815.474 828.75C815.996 827.733 816.732 826.94 817.681 826.372C818.635 825.804 819.755 825.52 821.039 825.52C821.902 825.52 822.706 825.659 823.451 825.938C824.201 826.21 824.854 826.622 825.411 827.173C825.974 827.724 826.411 828.418 826.724 829.253C827.036 830.082 827.192 831.054 827.192 832.168V833.165H816.138V830.915H823.775C823.775 830.392 823.661 829.929 823.434 829.526C823.206 829.122 822.891 828.807 822.488 828.58C822.09 828.347 821.627 828.23 821.099 828.23C820.547 828.23 820.059 828.358 819.633 828.614C819.212 828.864 818.883 829.202 818.644 829.628C818.405 830.048 818.283 830.517 818.277 831.034V833.173C818.277 833.821 818.397 834.381 818.635 834.852C818.88 835.324 819.224 835.688 819.667 835.943C820.11 836.199 820.635 836.327 821.243 836.327C821.647 836.327 822.016 836.27 822.351 836.156C822.687 836.043 822.974 835.872 823.212 835.645C823.451 835.418 823.633 835.139 823.758 834.81L827.116 835.031C826.945 835.838 826.596 836.543 826.067 837.145C825.545 837.741 824.868 838.207 824.039 838.543C823.215 838.872 822.263 839.037 821.184 839.037ZM833.192 831.213V838.781H829.562V825.69H833.022V828H833.175C833.465 827.239 833.951 826.636 834.633 826.193C835.314 825.744 836.141 825.52 837.113 825.52C838.022 825.52 838.814 825.719 839.491 826.116C840.167 826.514 840.692 827.082 841.067 827.821C841.442 828.554 841.63 829.429 841.63 830.446V838.781H837.999V831.094C838.005 830.293 837.8 829.668 837.385 829.219C836.971 828.764 836.4 828.537 835.672 828.537C835.184 828.537 834.752 828.642 834.377 828.852C834.008 829.062 833.718 829.369 833.508 829.773C833.303 830.17 833.198 830.651 833.192 831.213ZM851.454 825.69V828.418H843.571V825.69H851.454ZM845.361 822.554H848.991V834.759C848.991 835.094 849.042 835.355 849.145 835.543C849.247 835.724 849.389 835.852 849.571 835.926C849.758 836 849.974 836.037 850.219 836.037C850.389 836.037 850.559 836.023 850.73 835.994C850.9 835.96 851.031 835.935 851.122 835.918L851.693 838.619C851.511 838.676 851.255 838.741 850.926 838.815C850.596 838.895 850.196 838.943 849.724 838.96C848.849 838.994 848.082 838.878 847.423 838.611C846.77 838.344 846.261 837.929 845.898 837.366C845.534 836.804 845.355 836.094 845.361 835.236V822.554Z" fill="white"/>
<path d="M782.105 905.352C781.001 905.352 780.105 906.247 780.105 907.352C780.105 908.456 781.001 909.352 782.105 909.352V907.352V905.352ZM809.435 908.766C810.216 907.985 810.216 906.718 809.435 905.937L796.707 893.209C795.926 892.428 794.659 892.428 793.878 893.209C793.097 893.99 793.097 895.257 793.878 896.038L805.192 907.352L793.878 918.665C793.097 919.446 793.097 920.713 793.878 921.494C794.659 922.275 795.926 922.275 796.707 921.494L809.435 908.766ZM782.105 907.352V909.352H808.02V907.352V905.352H782.105V907.352Z" fill="white"/>
<circle cx="795.06" cy="907.357" r="35.8724" stroke="white" stroke-width="6"/>
</g>
<g filter="url(#filter2_d_3156_1317)">
<rect x="688.406" y="486.57" width="213.319" height="213.319" rx="53" fill="#0094FF" stroke="black" stroke-width="6"/>
<path d="M764.485 550.57H758.298V533.116H764.536C766.292 533.116 767.803 533.465 769.07 534.164C770.338 534.857 771.312 535.854 771.994 537.156C772.681 538.457 773.025 540.013 773.025 541.826C773.025 543.644 772.681 545.207 771.994 546.513C771.312 547.82 770.332 548.823 769.053 549.522C767.781 550.221 766.258 550.57 764.485 550.57ZM761.988 547.408H764.332C765.423 547.408 766.34 547.215 767.085 546.829C767.835 546.437 768.397 545.832 768.772 545.013C769.153 544.19 769.343 543.127 769.343 541.826C769.343 540.536 769.153 539.482 768.772 538.664C768.397 537.846 767.838 537.244 767.093 536.857C766.349 536.471 765.431 536.278 764.34 536.278H761.988V547.408ZM779.423 550.817C778.588 550.817 777.844 550.673 777.19 550.383C776.537 550.087 776.02 549.653 775.639 549.079C775.264 548.499 775.077 547.778 775.077 546.914C775.077 546.187 775.21 545.576 775.477 545.082C775.744 544.587 776.108 544.19 776.568 543.888C777.029 543.587 777.551 543.36 778.137 543.207C778.727 543.053 779.347 542.945 779.994 542.883C780.756 542.803 781.369 542.729 781.835 542.661C782.301 542.587 782.639 542.479 782.85 542.337C783.06 542.195 783.165 541.985 783.165 541.707V541.656C783.165 541.116 782.994 540.698 782.654 540.403C782.318 540.107 781.841 539.96 781.222 539.96C780.568 539.96 780.048 540.104 779.662 540.394C779.276 540.678 779.02 541.036 778.895 541.468L775.537 541.195C775.708 540.4 776.043 539.712 776.543 539.133C777.043 538.548 777.688 538.099 778.477 537.786C779.273 537.468 780.193 537.309 781.239 537.309C781.966 537.309 782.662 537.394 783.327 537.565C783.997 537.735 784.591 537.999 785.108 538.357C785.631 538.715 786.043 539.175 786.344 539.738C786.645 540.295 786.796 540.962 786.796 541.741V550.57H783.352V548.755H783.25C783.04 549.164 782.759 549.525 782.406 549.837C782.054 550.144 781.631 550.386 781.137 550.562C780.642 550.732 780.071 550.817 779.423 550.817ZM780.463 548.312C780.997 548.312 781.469 548.207 781.878 547.996C782.287 547.781 782.608 547.491 782.841 547.127C783.074 546.763 783.19 546.352 783.19 545.891V544.502C783.077 544.576 782.921 544.644 782.722 544.707C782.529 544.763 782.31 544.817 782.065 544.869C781.821 544.914 781.577 544.957 781.333 544.996C781.088 545.031 780.867 545.062 780.668 545.09C780.242 545.153 779.869 545.252 779.551 545.388C779.233 545.525 778.986 545.71 778.81 545.942C778.634 546.17 778.546 546.454 778.546 546.795C778.546 547.289 778.725 547.667 779.083 547.928C779.446 548.184 779.906 548.312 780.463 548.312ZM789.612 550.57V537.479H793.243V550.57H789.612ZM791.436 535.792C790.896 535.792 790.433 535.613 790.047 535.255C789.666 534.891 789.476 534.457 789.476 533.951C789.476 533.451 789.666 533.022 790.047 532.664C790.433 532.3 790.896 532.119 791.436 532.119C791.976 532.119 792.436 532.3 792.817 532.664C793.203 533.022 793.396 533.451 793.396 533.951C793.396 534.457 793.203 534.891 792.817 535.255C792.436 535.613 791.976 535.792 791.436 535.792ZM799.782 533.116V550.57H796.151V533.116H799.782ZM804.932 555.479C804.472 555.479 804.04 555.442 803.637 555.369C803.239 555.3 802.909 555.212 802.648 555.104L803.466 552.394C803.892 552.525 804.276 552.596 804.617 552.607C804.963 552.619 805.262 552.539 805.512 552.369C805.767 552.198 805.975 551.908 806.134 551.499L806.347 550.945L801.651 537.479H805.469L808.179 547.093H808.315L811.051 537.479H814.895L809.807 551.985C809.563 552.69 809.23 553.303 808.81 553.826C808.395 554.354 807.869 554.761 807.233 555.045C806.597 555.335 805.83 555.479 804.932 555.479ZM820.546 533.116V534.957C820.546 535.479 820.443 536.013 820.239 536.559C820.04 537.099 819.773 537.61 819.438 538.093C819.102 538.57 818.736 538.977 818.338 539.312L816.736 538.366C817.02 537.917 817.27 537.42 817.486 536.874C817.708 536.329 817.818 535.695 817.818 534.974V533.116H820.546ZM832.215 541.212L828.891 541.417C828.835 541.133 828.713 540.877 828.525 540.65C828.338 540.417 828.09 540.232 827.784 540.096C827.482 539.954 827.122 539.883 826.701 539.883C826.139 539.883 825.664 540.002 825.278 540.241C824.891 540.474 824.698 540.786 824.698 541.178C824.698 541.491 824.823 541.755 825.073 541.971C825.323 542.187 825.752 542.36 826.36 542.491L828.73 542.968C830.002 543.229 830.951 543.65 831.576 544.229C832.201 544.809 832.514 545.57 832.514 546.513C832.514 547.371 832.261 548.124 831.755 548.772C831.255 549.42 830.568 549.925 829.693 550.289C828.823 550.647 827.82 550.826 826.684 550.826C824.951 550.826 823.57 550.465 822.542 549.744C821.519 549.016 820.92 548.028 820.744 546.778L824.315 546.59C824.423 547.119 824.684 547.522 825.099 547.8C825.514 548.073 826.045 548.21 826.693 548.21C827.329 548.21 827.84 548.087 828.227 547.843C828.619 547.593 828.818 547.272 828.823 546.88C828.818 546.55 828.678 546.281 828.406 546.07C828.133 545.854 827.713 545.69 827.144 545.576L824.877 545.124C823.599 544.869 822.647 544.425 822.022 543.795C821.403 543.164 821.093 542.36 821.093 541.383C821.093 540.542 821.32 539.817 821.775 539.21C822.235 538.602 822.88 538.133 823.71 537.803C824.545 537.474 825.522 537.309 826.641 537.309C828.295 537.309 829.596 537.658 830.545 538.357C831.499 539.056 832.056 540.008 832.215 541.212Z" fill="white"/>
<rect x="733.281" y="593.641" width="19.9149" height="19.9149" rx="5" fill="white" stroke="white" stroke-width="6"/>
<rect x="767.066" y="593.641" width="19.9149" height="19.9149" rx="5" fill="white" stroke="white" stroke-width="6"/>
<rect x="800.848" y="593.641" width="19.9149" height="19.9149" rx="5" fill="white" stroke="white" stroke-width="6"/>
<rect x="834.633" y="593.641" width="19.9149" height="19.9149" rx="5" fill="white" stroke="white" stroke-width="6"/>
<rect x="750.602" y="628.281" width="19.9149" height="19.9149" rx="5" fill="white" stroke="white" stroke-width="6"/>
<rect x="784.395" y="628.281" width="19.9149" height="19.9149" rx="5" fill="white" stroke="white" stroke-width="6"/>
<rect x="818.18" y="628.281" width="19.9149" height="19.9149" rx="5" fill="white" stroke="white" stroke-width="6"/>
</g>
<g filter="url(#filter3_d_3156_1317)">
<rect x="558.191" y="198.992" width="213.319" height="213.319" rx="53" fill="#0094FF" stroke="black" stroke-width="6"/>
<path d="M598.645 262.992V245.538H605.532C606.85 245.538 607.975 245.773 608.907 246.245C609.844 246.711 610.557 247.373 611.046 248.231C611.54 249.083 611.787 250.086 611.787 251.239C611.787 252.398 611.537 253.396 611.037 254.231C610.537 255.06 609.813 255.697 608.864 256.14C607.921 256.583 606.779 256.805 605.438 256.805H600.827V253.839H604.841C605.546 253.839 606.131 253.742 606.597 253.549C607.063 253.356 607.41 253.066 607.637 252.68C607.87 252.293 607.986 251.813 607.986 251.239C607.986 250.66 607.87 250.171 607.637 249.773C607.41 249.376 607.06 249.075 606.589 248.87C606.123 248.66 605.535 248.555 604.824 248.555H602.336V262.992H598.645ZM608.072 255.049L612.41 262.992H608.336L604.091 255.049H608.072ZM620.082 263.248C618.736 263.248 617.577 262.975 616.605 262.43C615.639 261.879 614.895 261.1 614.372 260.094C613.849 259.083 613.588 257.887 613.588 256.506C613.588 255.16 613.849 253.978 614.372 252.961C614.895 251.944 615.63 251.151 616.579 250.583C617.534 250.015 618.653 249.731 619.937 249.731C620.801 249.731 621.605 249.87 622.349 250.148C623.099 250.421 623.753 250.833 624.309 251.384C624.872 251.935 625.309 252.629 625.622 253.464C625.934 254.293 626.091 255.265 626.091 256.379V257.376H615.037V255.126H622.673C622.673 254.603 622.559 254.14 622.332 253.737C622.105 253.333 621.79 253.018 621.386 252.79C620.988 252.558 620.525 252.441 619.997 252.441C619.446 252.441 618.957 252.569 618.531 252.825C618.111 253.075 617.781 253.413 617.542 253.839C617.304 254.259 617.182 254.728 617.176 255.245V257.384C617.176 258.032 617.295 258.592 617.534 259.063C617.778 259.535 618.122 259.898 618.565 260.154C619.008 260.41 619.534 260.538 620.142 260.538C620.545 260.538 620.915 260.481 621.25 260.367C621.585 260.254 621.872 260.083 622.111 259.856C622.349 259.629 622.531 259.35 622.656 259.021L626.014 259.242C625.844 260.049 625.494 260.754 624.966 261.356C624.443 261.952 623.767 262.418 622.937 262.754C622.113 263.083 621.162 263.248 620.082 263.248ZM635.5 249.901V252.629H627.42V249.901H635.5ZM629.27 262.992V248.955C629.27 248.006 629.454 247.219 629.824 246.594C630.199 245.969 630.71 245.501 631.358 245.188C632.005 244.876 632.741 244.719 633.565 244.719C634.122 244.719 634.63 244.762 635.091 244.847C635.557 244.933 635.903 245.009 636.13 245.077L635.483 247.805C635.341 247.759 635.165 247.717 634.954 247.677C634.75 247.637 634.54 247.617 634.324 247.617C633.79 247.617 633.417 247.742 633.207 247.992C632.997 248.237 632.892 248.58 632.892 249.023V262.992H629.27ZM637.718 262.992V249.901H641.349V262.992H637.718ZM639.542 248.214C639.002 248.214 638.539 248.035 638.152 247.677C637.772 247.313 637.581 246.879 637.581 246.373C637.581 245.873 637.772 245.444 638.152 245.086C638.539 244.722 639.002 244.54 639.542 244.54C640.081 244.54 640.542 244.722 640.922 245.086C641.309 245.444 641.502 245.873 641.502 246.373C641.502 246.879 641.309 247.313 640.922 247.677C640.542 248.035 640.081 248.214 639.542 248.214ZM647.888 255.424V262.992H644.257V249.901H647.717V252.211H647.871C648.16 251.45 648.646 250.847 649.328 250.404C650.01 249.955 650.836 249.731 651.808 249.731C652.717 249.731 653.51 249.93 654.186 250.327C654.862 250.725 655.388 251.293 655.763 252.032C656.138 252.765 656.325 253.64 656.325 254.657V262.992H652.694V255.305C652.7 254.504 652.496 253.879 652.081 253.43C651.666 252.975 651.095 252.748 650.368 252.748C649.879 252.748 649.447 252.853 649.072 253.063C648.703 253.273 648.413 253.58 648.203 253.984C647.998 254.381 647.893 254.862 647.888 255.424ZM665.152 263.248C663.806 263.248 662.647 262.975 661.675 262.43C660.709 261.879 659.965 261.1 659.442 260.094C658.92 259.083 658.658 257.887 658.658 256.506C658.658 255.16 658.92 253.978 659.442 252.961C659.965 251.944 660.701 251.151 661.65 250.583C662.604 250.015 663.724 249.731 665.008 249.731C665.871 249.731 666.675 249.87 667.42 250.148C668.17 250.421 668.823 250.833 669.38 251.384C669.942 251.935 670.38 252.629 670.692 253.464C671.005 254.293 671.161 255.265 671.161 256.379V257.376H660.107V255.126H667.743C667.743 254.603 667.63 254.14 667.402 253.737C667.175 253.333 666.86 253.018 666.456 252.79C666.059 252.558 665.596 252.441 665.067 252.441C664.516 252.441 664.027 252.569 663.601 252.825C663.181 253.075 662.851 253.413 662.613 253.839C662.374 254.259 662.252 254.728 662.246 255.245V257.384C662.246 258.032 662.366 258.592 662.604 259.063C662.849 259.535 663.192 259.898 663.635 260.154C664.079 260.41 664.604 260.538 665.212 260.538C665.616 260.538 665.985 260.481 666.32 260.367C666.655 260.254 666.942 260.083 667.181 259.856C667.42 259.629 667.601 259.35 667.726 259.021L671.084 259.242C670.914 260.049 670.564 260.754 670.036 261.356C669.513 261.952 668.837 262.418 668.008 262.754C667.184 263.083 666.232 263.248 665.152 263.248ZM673.53 262.992V249.901H676.991V252.211H677.144C677.417 251.444 677.871 250.839 678.508 250.396C679.144 249.952 679.905 249.731 680.792 249.731C681.689 249.731 682.454 249.955 683.084 250.404C683.715 250.847 684.135 251.45 684.346 252.211H684.482C684.749 251.461 685.232 250.862 685.931 250.413C686.635 249.958 687.468 249.731 688.428 249.731C689.65 249.731 690.641 250.12 691.402 250.898C692.17 251.671 692.553 252.768 692.553 254.188V262.992H688.931V254.904C688.931 254.177 688.738 253.631 688.351 253.268C687.965 252.904 687.482 252.722 686.902 252.722C686.243 252.722 685.729 252.933 685.36 253.353C684.991 253.768 684.806 254.316 684.806 254.998V262.992H681.286V254.827C681.286 254.185 681.101 253.674 680.732 253.293C680.368 252.913 679.888 252.722 679.292 252.722C678.888 252.722 678.525 252.825 678.201 253.029C677.883 253.228 677.63 253.509 677.442 253.873C677.255 254.231 677.161 254.651 677.161 255.134V262.992H673.53ZM701.387 263.248C700.04 263.248 698.881 262.975 697.91 262.43C696.944 261.879 696.199 261.1 695.677 260.094C695.154 259.083 694.893 257.887 694.893 256.506C694.893 255.16 695.154 253.978 695.677 252.961C696.199 251.944 696.935 251.151 697.884 250.583C698.839 250.015 699.958 249.731 701.242 249.731C702.106 249.731 702.91 249.87 703.654 250.148C704.404 250.421 705.057 250.833 705.614 251.384C706.177 251.935 706.614 252.629 706.927 253.464C707.239 254.293 707.395 255.265 707.395 256.379V257.376H696.341V255.126H703.978C703.978 254.603 703.864 254.14 703.637 253.737C703.41 253.333 703.094 253.018 702.691 252.79C702.293 252.558 701.83 252.441 701.302 252.441C700.751 252.441 700.262 252.569 699.836 252.825C699.415 253.075 699.086 253.413 698.847 253.839C698.608 254.259 698.486 254.728 698.481 255.245V257.384C698.481 258.032 698.6 258.592 698.839 259.063C699.083 259.535 699.427 259.898 699.87 260.154C700.313 260.41 700.839 260.538 701.447 260.538C701.85 260.538 702.219 260.481 702.554 260.367C702.89 260.254 703.177 260.083 703.415 259.856C703.654 259.629 703.836 259.35 703.961 259.021L707.319 259.242C707.148 260.049 706.799 260.754 706.27 261.356C705.748 261.952 705.072 262.418 704.242 262.754C703.418 263.083 702.466 263.248 701.387 263.248ZM713.395 255.424V262.992H709.765V249.901H713.225V252.211H713.378C713.668 251.45 714.154 250.847 714.836 250.404C715.518 249.955 716.344 249.731 717.316 249.731C718.225 249.731 719.018 249.93 719.694 250.327C720.37 250.725 720.895 251.293 721.27 252.032C721.645 252.765 721.833 253.64 721.833 254.657V262.992H718.202V255.305C718.208 254.504 718.003 253.879 717.589 253.43C717.174 252.975 716.603 252.748 715.876 252.748C715.387 252.748 714.955 252.853 714.58 253.063C714.211 253.273 713.921 253.58 713.711 253.984C713.506 254.381 713.401 254.862 713.395 255.424ZM731.657 249.901V252.629H723.774V249.901H731.657ZM725.564 246.765H729.194V258.969C729.194 259.305 729.246 259.566 729.348 259.754C729.45 259.935 729.592 260.063 729.774 260.137C729.961 260.211 730.177 260.248 730.422 260.248C730.592 260.248 730.763 260.234 730.933 260.205C731.103 260.171 731.234 260.146 731.325 260.129L731.896 262.83C731.714 262.887 731.459 262.952 731.129 263.026C730.8 263.106 730.399 263.154 729.927 263.171C729.052 263.205 728.285 263.089 727.626 262.822C726.973 262.555 726.464 262.14 726.101 261.577C725.737 261.015 725.558 260.305 725.564 259.447V246.765Z" fill="white"/>
<circle cx="667.435" cy="331.56" r="35.8724" stroke="white" stroke-width="6"/>
<path d="M652.996 335.16L661.075 341.736C663.21 343.474 666.348 343.159 668.095 341.032L684.094 321.555" stroke="white" stroke-width="6" stroke-linecap="round"/>
</g>
<g filter="url(#filter4_d_3156_1317)">
<rect x="251.289" y="198.992" width="213.319" height="213.319" rx="53" fill="#0094FF" stroke="black" stroke-width="6"/>
<path d="M317.067 262.992V245.538H323.954C325.272 245.538 326.397 245.773 327.329 246.245C328.266 246.711 328.979 247.373 329.468 248.231C329.962 249.083 330.209 250.086 330.209 251.239C330.209 252.398 329.959 253.396 329.459 254.231C328.959 255.06 328.235 255.697 327.286 256.14C326.343 256.583 325.201 256.805 323.86 256.805H319.249V253.839H323.263C323.968 253.839 324.553 253.742 325.019 253.549C325.485 253.356 325.831 253.066 326.059 252.68C326.292 252.293 326.408 251.813 326.408 251.239C326.408 250.66 326.292 250.171 326.059 249.773C325.831 249.376 325.482 249.075 325.01 248.87C324.545 248.66 323.956 248.555 323.246 248.555H320.758V262.992H317.067ZM326.493 255.049L330.831 262.992H326.758L322.513 255.049H326.493ZM338.504 263.248C337.157 263.248 335.998 262.975 335.027 262.43C334.061 261.879 333.317 261.1 332.794 260.094C332.271 259.083 332.01 257.887 332.01 256.506C332.01 255.16 332.271 253.978 332.794 252.961C333.317 251.944 334.052 251.151 335.001 250.583C335.956 250.015 337.075 249.731 338.359 249.731C339.223 249.731 340.027 249.87 340.771 250.148C341.521 250.421 342.175 250.833 342.731 251.384C343.294 251.935 343.731 252.629 344.044 253.464C344.356 254.293 344.513 255.265 344.513 256.379V257.376H333.459V255.126H341.095C341.095 254.603 340.981 254.14 340.754 253.737C340.527 253.333 340.211 253.018 339.808 252.79C339.41 252.558 338.947 252.441 338.419 252.441C337.868 252.441 337.379 252.569 336.953 252.825C336.532 253.075 336.203 253.413 335.964 253.839C335.726 254.259 335.603 254.728 335.598 255.245V257.384C335.598 258.032 335.717 258.592 335.956 259.063C336.2 259.535 336.544 259.898 336.987 260.154C337.43 260.41 337.956 260.538 338.564 260.538C338.967 260.538 339.336 260.481 339.672 260.367C340.007 260.254 340.294 260.083 340.532 259.856C340.771 259.629 340.953 259.35 341.078 259.021L344.436 259.242C344.265 260.049 343.916 260.754 343.388 261.356C342.865 261.952 342.189 262.418 341.359 262.754C340.535 263.083 339.584 263.248 338.504 263.248ZM358.735 249.901L354.158 262.992H350.067L345.491 249.901H349.326L352.045 259.268H352.181L354.891 249.901H358.735ZM360.593 262.992V249.901H364.224V262.992H360.593ZM362.417 248.214C361.877 248.214 361.414 248.035 361.027 247.677C360.647 247.313 360.456 246.879 360.456 246.373C360.456 245.873 360.647 245.444 361.027 245.086C361.414 244.722 361.877 244.54 362.417 244.54C362.956 244.54 363.417 244.722 363.797 245.086C364.184 245.444 364.377 245.873 364.377 246.373C364.377 246.879 364.184 247.313 363.797 247.677C363.417 248.035 362.956 248.214 362.417 248.214ZM373.098 263.248C371.751 263.248 370.592 262.975 369.621 262.43C368.655 261.879 367.91 261.1 367.388 260.094C366.865 259.083 366.603 257.887 366.603 256.506C366.603 255.16 366.865 253.978 367.388 252.961C367.91 251.944 368.646 251.151 369.595 250.583C370.55 250.015 371.669 249.731 372.953 249.731C373.817 249.731 374.621 249.87 375.365 250.148C376.115 250.421 376.768 250.833 377.325 251.384C377.888 251.935 378.325 252.629 378.638 253.464C378.95 254.293 379.106 255.265 379.106 256.379V257.376H368.052V255.126H375.689C375.689 254.603 375.575 254.14 375.348 253.737C375.121 253.333 374.805 253.018 374.402 252.79C374.004 252.558 373.541 252.441 373.013 252.441C372.461 252.441 371.973 252.569 371.547 252.825C371.126 253.075 370.797 253.413 370.558 253.839C370.319 254.259 370.197 254.728 370.192 255.245V257.384C370.192 258.032 370.311 258.592 370.55 259.063C370.794 259.535 371.138 259.898 371.581 260.154C372.024 260.41 372.55 260.538 373.157 260.538C373.561 260.538 373.93 260.481 374.265 260.367C374.601 260.254 374.888 260.083 375.126 259.856C375.365 259.629 375.547 259.35 375.672 259.021L379.03 259.242C378.859 260.049 378.51 260.754 377.981 261.356C377.459 261.952 376.782 262.418 375.953 262.754C375.129 263.083 374.177 263.248 373.098 263.248ZM383.964 262.992L380.402 249.901H384.075L386.103 258.697H386.223L388.336 249.901H391.942L394.089 258.646H394.2L396.194 249.901H399.859L396.305 262.992H392.461L390.211 254.759H390.05L387.8 262.992H383.964Z" fill="white"/>
<circle cx="357.943" cy="331.56" r="35.8724" stroke="white" stroke-width="6"/>
<path d="M343.504 335.16L351.583 341.736C353.718 343.474 356.856 343.159 358.603 341.032L374.602 321.555" stroke="white" stroke-width="6" stroke-linecap="round"/>
</g>
<g filter="url(#filter5_d_3156_1317)">
<rect x="119.758" y="486.57" width="213.319" height="213.319" rx="53" fill="#0094FF" stroke="black" stroke-width="6"/>
<path d="M163.153 550.57V533.116H170.04C171.358 533.116 172.483 533.352 173.415 533.823C174.352 534.289 175.065 534.951 175.554 535.809C176.048 536.661 176.295 537.664 176.295 538.817C176.295 539.977 176.045 540.974 175.545 541.809C175.045 542.638 174.321 543.275 173.372 543.718C172.429 544.161 171.287 544.383 169.946 544.383H165.335V541.417H169.349C170.054 541.417 170.639 541.32 171.105 541.127C171.571 540.934 171.917 540.644 172.145 540.258C172.378 539.871 172.494 539.391 172.494 538.817C172.494 538.238 172.378 537.749 172.145 537.352C171.917 536.954 171.568 536.653 171.096 536.448C170.63 536.238 170.042 536.133 169.332 536.133H166.844V550.57H163.153ZM172.579 542.627L176.917 550.57H172.844L168.599 542.627H172.579ZM184.59 550.826C183.243 550.826 182.084 550.553 181.113 550.008C180.147 549.457 179.402 548.678 178.88 547.673C178.357 546.661 178.096 545.465 178.096 544.085C178.096 542.738 178.357 541.556 178.88 540.539C179.402 539.522 180.138 538.729 181.087 538.161C182.042 537.593 183.161 537.309 184.445 537.309C185.309 537.309 186.113 537.448 186.857 537.727C187.607 537.999 188.26 538.411 188.817 538.962C189.38 539.513 189.817 540.207 190.13 541.042C190.442 541.871 190.599 542.843 190.599 543.957V544.954H179.545V542.704H187.181C187.181 542.181 187.067 541.718 186.84 541.315C186.613 540.911 186.297 540.596 185.894 540.369C185.496 540.136 185.033 540.019 184.505 540.019C183.954 540.019 183.465 540.147 183.039 540.403C182.618 540.653 182.289 540.991 182.05 541.417C181.812 541.837 181.689 542.306 181.684 542.823V544.962C181.684 545.61 181.803 546.17 182.042 546.641C182.286 547.113 182.63 547.477 183.073 547.732C183.516 547.988 184.042 548.116 184.65 548.116C185.053 548.116 185.422 548.059 185.758 547.945C186.093 547.832 186.38 547.661 186.618 547.434C186.857 547.207 187.039 546.928 187.164 546.599L190.522 546.82C190.351 547.627 190.002 548.332 189.474 548.934C188.951 549.531 188.275 549.996 187.445 550.332C186.621 550.661 185.67 550.826 184.59 550.826ZM199.931 537.479V540.207H192.047V537.479H199.931ZM193.837 534.343H197.468V546.548C197.468 546.883 197.519 547.144 197.621 547.332C197.724 547.513 197.866 547.641 198.047 547.715C198.235 547.789 198.451 547.826 198.695 547.826C198.866 547.826 199.036 547.812 199.206 547.783C199.377 547.749 199.508 547.724 199.599 547.707L200.17 550.408C199.988 550.465 199.732 550.531 199.402 550.604C199.073 550.684 198.672 550.732 198.201 550.749C197.326 550.783 196.559 550.667 195.9 550.4C195.246 550.133 194.738 549.718 194.374 549.156C194.01 548.593 193.831 547.883 193.837 547.025V534.343ZM202.296 550.57V537.479H205.816V539.763H205.952C206.191 538.951 206.591 538.337 207.154 537.923C207.716 537.502 208.364 537.292 209.097 537.292C209.279 537.292 209.475 537.303 209.685 537.326C209.895 537.349 210.08 537.38 210.239 537.42V540.641C210.069 540.59 209.833 540.545 209.532 540.505C209.231 540.465 208.955 540.445 208.705 540.445C208.171 540.445 207.694 540.562 207.273 540.795C206.858 541.022 206.529 541.34 206.285 541.749C206.046 542.158 205.927 542.63 205.927 543.164V550.57H202.296ZM217.422 550.826C216.098 550.826 214.953 550.545 213.987 549.982C213.027 549.414 212.285 548.624 211.763 547.613C211.24 546.596 210.978 545.417 210.978 544.076C210.978 542.724 211.24 541.542 211.763 540.531C212.285 539.513 213.027 538.724 213.987 538.161C214.953 537.593 216.098 537.309 217.422 537.309C218.746 537.309 219.888 537.593 220.848 538.161C221.814 538.724 222.558 539.513 223.081 540.531C223.603 541.542 223.865 542.724 223.865 544.076C223.865 545.417 223.603 546.596 223.081 547.613C222.558 548.624 221.814 549.414 220.848 549.982C219.888 550.545 218.746 550.826 217.422 550.826ZM217.439 548.013C218.041 548.013 218.544 547.843 218.947 547.502C219.351 547.156 219.655 546.684 219.859 546.087C220.069 545.491 220.175 544.812 220.175 544.05C220.175 543.289 220.069 542.61 219.859 542.013C219.655 541.417 219.351 540.945 218.947 540.599C218.544 540.252 218.041 540.079 217.439 540.079C216.831 540.079 216.319 540.252 215.905 540.599C215.496 540.945 215.186 541.417 214.976 542.013C214.771 542.61 214.669 543.289 214.669 544.05C214.669 544.812 214.771 545.491 214.976 546.087C215.186 546.684 215.496 547.156 215.905 547.502C216.319 547.843 216.831 548.013 217.439 548.013ZM237.118 541.212L233.794 541.417C233.737 541.133 233.615 540.877 233.427 540.65C233.24 540.417 232.993 540.232 232.686 540.096C232.385 539.954 232.024 539.883 231.603 539.883C231.041 539.883 230.567 540.002 230.18 540.241C229.794 540.474 229.601 540.786 229.601 541.178C229.601 541.491 229.726 541.755 229.976 541.971C230.226 542.187 230.655 542.36 231.263 542.491L233.632 542.968C234.905 543.229 235.853 543.65 236.478 544.229C237.103 544.809 237.416 545.57 237.416 546.513C237.416 547.371 237.163 548.124 236.657 548.772C236.157 549.42 235.47 549.925 234.595 550.289C233.726 550.647 232.723 550.826 231.586 550.826C229.853 550.826 228.473 550.465 227.444 549.744C226.422 549.016 225.822 548.028 225.646 546.778L229.217 546.59C229.325 547.119 229.586 547.522 230.001 547.8C230.416 548.073 230.947 548.21 231.595 548.21C232.231 548.21 232.743 548.087 233.129 547.843C233.521 547.593 233.72 547.272 233.726 546.88C233.72 546.55 233.581 546.281 233.308 546.07C233.035 545.854 232.615 545.69 232.047 545.576L229.78 545.124C228.501 544.869 227.55 544.425 226.925 543.795C226.305 543.164 225.996 542.36 225.996 541.383C225.996 540.542 226.223 539.817 226.677 539.21C227.138 538.602 227.782 538.133 228.612 537.803C229.447 537.474 230.425 537.309 231.544 537.309C233.197 537.309 234.498 537.658 235.447 538.357C236.402 539.056 236.959 540.008 237.118 541.212ZM239.702 555.479V537.479H243.282V539.678H243.444C243.603 539.326 243.833 538.968 244.134 538.604C244.441 538.235 244.839 537.928 245.327 537.684C245.822 537.434 246.435 537.309 247.168 537.309C248.123 537.309 249.003 537.559 249.81 538.059C250.617 538.553 251.262 539.3 251.745 540.3C252.228 541.295 252.469 542.542 252.469 544.042C252.469 545.502 252.233 546.735 251.762 547.741C251.296 548.741 250.66 549.499 249.853 550.016C249.052 550.528 248.154 550.783 247.16 550.783C246.455 550.783 245.856 550.667 245.361 550.434C244.873 550.201 244.472 549.908 244.16 549.556C243.847 549.198 243.608 548.837 243.444 548.474H243.333V555.479H239.702ZM243.256 544.025C243.256 544.803 243.364 545.482 243.58 546.062C243.796 546.641 244.108 547.093 244.518 547.417C244.927 547.735 245.424 547.894 246.009 547.894C246.6 547.894 247.1 547.732 247.509 547.408C247.918 547.079 248.228 546.624 248.438 546.045C248.654 545.46 248.762 544.786 248.762 544.025C248.762 543.269 248.657 542.604 248.447 542.031C248.236 541.457 247.927 541.008 247.518 540.684C247.108 540.36 246.606 540.198 246.009 540.198C245.418 540.198 244.918 540.354 244.509 540.667C244.106 540.979 243.796 541.423 243.58 541.996C243.364 542.57 243.256 543.246 243.256 544.025ZM260.856 550.826C259.509 550.826 258.35 550.553 257.378 550.008C256.412 549.457 255.668 548.678 255.145 547.673C254.623 546.661 254.361 545.465 254.361 544.085C254.361 542.738 254.623 541.556 255.145 540.539C255.668 539.522 256.404 538.729 257.353 538.161C258.307 537.593 259.427 537.309 260.711 537.309C261.574 537.309 262.378 537.448 263.123 537.727C263.873 537.999 264.526 538.411 265.083 538.962C265.645 539.513 266.083 540.207 266.395 541.042C266.708 541.871 266.864 542.843 266.864 543.957V544.954H255.81V542.704H263.447C263.447 542.181 263.333 541.718 263.106 541.315C262.878 540.911 262.563 540.596 262.16 540.369C261.762 540.136 261.299 540.019 260.77 540.019C260.219 540.019 259.731 540.147 259.304 540.403C258.884 540.653 258.554 540.991 258.316 541.417C258.077 541.837 257.955 542.306 257.949 542.823V544.962C257.949 545.61 258.069 546.17 258.307 546.641C258.552 547.113 258.895 547.477 259.339 547.732C259.782 547.988 260.307 548.116 260.915 548.116C261.319 548.116 261.688 548.059 262.023 547.945C262.358 547.832 262.645 547.661 262.884 547.434C263.123 547.207 263.304 546.928 263.429 546.599L266.787 546.82C266.617 547.627 266.268 548.332 265.739 548.934C265.216 549.531 264.54 549.996 263.711 550.332C262.887 550.661 261.935 550.826 260.856 550.826ZM275.148 550.826C273.807 550.826 272.654 550.542 271.688 549.974C270.728 549.4 269.989 548.604 269.472 547.587C268.961 546.57 268.705 545.4 268.705 544.076C268.705 542.735 268.964 541.559 269.481 540.548C270.003 539.531 270.745 538.738 271.705 538.17C272.665 537.596 273.807 537.309 275.131 537.309C276.273 537.309 277.273 537.516 278.131 537.931C278.989 538.346 279.668 538.928 280.168 539.678C280.668 540.428 280.944 541.309 280.995 542.32H277.569C277.472 541.667 277.216 541.141 276.802 540.744C276.393 540.34 275.856 540.138 275.191 540.138C274.628 540.138 274.137 540.292 273.716 540.599C273.302 540.9 272.978 541.34 272.745 541.92C272.512 542.499 272.395 543.201 272.395 544.025C272.395 544.86 272.509 545.57 272.736 546.156C272.969 546.741 273.296 547.187 273.716 547.494C274.137 547.8 274.628 547.954 275.191 547.954C275.606 547.954 275.978 547.869 276.307 547.698C276.643 547.528 276.918 547.281 277.134 546.957C277.356 546.627 277.501 546.232 277.569 545.772H280.995C280.938 546.772 280.665 547.653 280.177 548.414C279.694 549.17 279.026 549.761 278.174 550.187C277.322 550.613 276.313 550.826 275.148 550.826ZM290.282 537.479V540.207H282.399V537.479H290.282ZM284.189 534.343H287.819V546.548C287.819 546.883 287.871 547.144 287.973 547.332C288.075 547.513 288.217 547.641 288.399 547.715C288.586 547.789 288.802 547.826 289.047 547.826C289.217 547.826 289.388 547.812 289.558 547.783C289.728 547.749 289.859 547.724 289.95 547.707L290.521 550.408C290.339 550.465 290.084 550.531 289.754 550.604C289.425 550.684 289.024 550.732 288.552 550.749C287.677 550.783 286.91 550.667 286.251 550.4C285.598 550.133 285.089 549.718 284.726 549.156C284.362 548.593 284.183 547.883 284.189 547.025V534.343Z" fill="white"/>
<circle cx="229.005" cy="619.146" r="35.8724" stroke="white" stroke-width="6"/>
<path d="M214.566 622.769L222.645 629.345C224.78 631.083 227.918 630.768 229.665 628.641L245.664 609.164" stroke="white" stroke-width="6" stroke-linecap="round"/>
</g>
<g filter="url(#filter6_d_3156_1317)">
<rect x="119.758" y="774.781" width="213.319" height="213.319" rx="53" fill="#0094FF" stroke="black" stroke-width="6"/>
<path d="M180.79 838.781V821.327H187.779C189.063 821.327 190.134 821.517 190.992 821.898C191.85 822.278 192.494 822.807 192.926 823.483C193.358 824.153 193.574 824.926 193.574 825.801C193.574 826.483 193.438 827.082 193.165 827.599C192.892 828.111 192.517 828.531 192.04 828.861C191.568 829.185 191.029 829.415 190.421 829.551V829.722C191.085 829.75 191.708 829.937 192.287 830.284C192.872 830.631 193.347 831.116 193.71 831.741C194.074 832.361 194.256 833.099 194.256 833.957C194.256 834.884 194.026 835.71 193.565 836.438C193.111 837.159 192.438 837.73 191.546 838.151C190.654 838.571 189.554 838.781 188.247 838.781H180.79ZM184.48 835.764H187.489C188.517 835.764 189.267 835.568 189.739 835.176C190.21 834.778 190.446 834.25 190.446 833.591C190.446 833.108 190.33 832.682 190.097 832.312C189.864 831.943 189.531 831.653 189.1 831.443C188.673 831.233 188.165 831.128 187.574 831.128H184.48V835.764ZM184.48 828.631H187.216C187.722 828.631 188.171 828.543 188.563 828.366C188.96 828.185 189.273 827.929 189.5 827.599C189.733 827.27 189.85 826.875 189.85 826.415C189.85 825.784 189.625 825.276 189.176 824.889C188.733 824.503 188.102 824.31 187.284 824.31H184.48V828.631ZM200.322 839.028C199.487 839.028 198.742 838.884 198.089 838.594C197.436 838.298 196.918 837.864 196.538 837.29C196.163 836.71 195.975 835.989 195.975 835.125C195.975 834.398 196.109 833.787 196.376 833.293C196.643 832.798 197.007 832.401 197.467 832.099C197.927 831.798 198.45 831.571 199.035 831.418C199.626 831.264 200.245 831.156 200.893 831.094C201.654 831.014 202.268 830.94 202.734 830.872C203.2 830.798 203.538 830.69 203.748 830.548C203.958 830.406 204.063 830.196 204.063 829.918V829.866C204.063 829.327 203.893 828.909 203.552 828.614C203.217 828.318 202.74 828.17 202.12 828.17C201.467 828.17 200.947 828.315 200.561 828.605C200.174 828.889 199.918 829.247 199.793 829.679L196.436 829.406C196.606 828.611 196.941 827.923 197.441 827.344C197.941 826.759 198.586 826.31 199.376 825.997C200.171 825.679 201.092 825.52 202.137 825.52C202.865 825.52 203.561 825.605 204.225 825.776C204.896 825.946 205.49 826.21 206.007 826.568C206.529 826.926 206.941 827.386 207.242 827.949C207.543 828.506 207.694 829.173 207.694 829.952V838.781H204.251V836.966H204.149C203.938 837.375 203.657 837.736 203.305 838.048C202.953 838.355 202.529 838.597 202.035 838.773C201.541 838.943 200.97 839.028 200.322 839.028ZM201.362 836.523C201.896 836.523 202.367 836.418 202.776 836.207C203.186 835.991 203.507 835.702 203.739 835.338C203.972 834.974 204.089 834.562 204.089 834.102V832.713C203.975 832.787 203.819 832.855 203.62 832.918C203.427 832.974 203.208 833.028 202.964 833.08C202.72 833.125 202.475 833.168 202.231 833.207C201.987 833.241 201.765 833.273 201.566 833.301C201.14 833.364 200.768 833.463 200.45 833.599C200.132 833.736 199.884 833.92 199.708 834.153C199.532 834.381 199.444 834.665 199.444 835.006C199.444 835.5 199.623 835.878 199.981 836.139C200.345 836.395 200.805 836.523 201.362 836.523ZM216.426 839.037C215.085 839.037 213.931 838.753 212.965 838.185C212.005 837.611 211.266 836.815 210.749 835.798C210.238 834.781 209.982 833.611 209.982 832.287C209.982 830.946 210.241 829.77 210.758 828.759C211.281 827.741 212.022 826.949 212.982 826.381C213.943 825.807 215.085 825.52 216.409 825.52C217.551 825.52 218.551 825.727 219.409 826.142C220.266 826.557 220.945 827.139 221.445 827.889C221.945 828.639 222.221 829.52 222.272 830.531H218.846C218.749 829.878 218.494 829.352 218.079 828.955C217.67 828.551 217.133 828.349 216.468 828.349C215.906 828.349 215.414 828.503 214.994 828.81C214.579 829.111 214.255 829.551 214.022 830.131C213.789 830.71 213.673 831.412 213.673 832.236C213.673 833.071 213.786 833.781 214.014 834.366C214.247 834.952 214.573 835.398 214.994 835.705C215.414 836.011 215.906 836.165 216.468 836.165C216.883 836.165 217.255 836.08 217.585 835.909C217.92 835.739 218.195 835.491 218.411 835.168C218.633 834.838 218.778 834.443 218.846 833.983H222.272C222.215 834.983 221.943 835.864 221.454 836.625C220.971 837.381 220.303 837.972 219.451 838.398C218.599 838.824 217.59 839.037 216.426 839.037ZM227.887 835.014L227.895 830.659H228.423L232.617 825.69H236.784L231.151 832.27H230.29L227.887 835.014ZM224.597 838.781V821.327H228.227V838.781H224.597ZM232.779 838.781L228.926 833.08L231.347 830.514L237.031 838.781H232.779ZM242.196 821.327V838.781H238.565V821.327H242.196ZM251.019 839.037C249.695 839.037 248.551 838.756 247.585 838.193C246.624 837.625 245.883 836.835 245.36 835.824C244.838 834.807 244.576 833.628 244.576 832.287C244.576 830.935 244.838 829.753 245.36 828.741C245.883 827.724 246.624 826.935 247.585 826.372C248.551 825.804 249.695 825.52 251.019 825.52C252.343 825.52 253.485 825.804 254.445 826.372C255.411 826.935 256.156 827.724 256.678 828.741C257.201 829.753 257.463 830.935 257.463 832.287C257.463 833.628 257.201 834.807 256.678 835.824C256.156 836.835 255.411 837.625 254.445 838.193C253.485 838.756 252.343 839.037 251.019 839.037ZM251.036 836.224C251.639 836.224 252.141 836.054 252.545 835.713C252.948 835.366 253.252 834.895 253.457 834.298C253.667 833.702 253.772 833.023 253.772 832.261C253.772 831.5 253.667 830.821 253.457 830.224C253.252 829.628 252.948 829.156 252.545 828.81C252.141 828.463 251.639 828.29 251.036 828.29C250.428 828.29 249.917 828.463 249.502 828.81C249.093 829.156 248.784 829.628 248.573 830.224C248.369 830.821 248.266 831.5 248.266 832.261C248.266 833.023 248.369 833.702 248.573 834.298C248.784 834.895 249.093 835.366 249.502 835.713C249.917 836.054 250.428 836.224 251.036 836.224ZM265.721 843.963C264.545 843.963 263.536 843.801 262.695 843.477C261.86 843.159 261.195 842.724 260.701 842.173C260.207 841.622 259.886 841.003 259.738 840.315L263.096 839.864C263.198 840.125 263.36 840.369 263.582 840.597C263.803 840.824 264.096 841.006 264.46 841.142C264.829 841.284 265.278 841.355 265.806 841.355C266.596 841.355 267.247 841.162 267.758 840.776C268.275 840.395 268.534 839.756 268.534 838.858V836.463H268.38C268.221 836.827 267.982 837.17 267.664 837.494C267.346 837.818 266.937 838.082 266.437 838.287C265.937 838.491 265.34 838.594 264.647 838.594C263.664 838.594 262.769 838.366 261.963 837.912C261.161 837.452 260.522 836.75 260.045 835.807C259.573 834.858 259.338 833.659 259.338 832.21C259.338 830.727 259.579 829.489 260.062 828.494C260.545 827.5 261.187 826.756 261.988 826.261C262.795 825.767 263.678 825.52 264.639 825.52C265.372 825.52 265.985 825.645 266.48 825.895C266.974 826.139 267.372 826.446 267.673 826.815C267.98 827.179 268.215 827.537 268.38 827.889H268.516V825.69H272.122V838.909C272.122 840.023 271.849 840.955 271.303 841.705C270.758 842.455 270.002 843.017 269.036 843.392C268.076 843.773 266.971 843.963 265.721 843.963ZM265.798 835.866C266.383 835.866 266.877 835.722 267.281 835.432C267.69 835.136 268.002 834.716 268.218 834.17C268.44 833.619 268.551 832.96 268.551 832.193C268.551 831.426 268.443 830.761 268.227 830.199C268.011 829.631 267.698 829.19 267.289 828.878C266.88 828.565 266.383 828.409 265.798 828.409C265.201 828.409 264.698 828.571 264.289 828.895C263.88 829.213 263.57 829.656 263.36 830.224C263.15 830.793 263.045 831.449 263.045 832.193C263.045 832.949 263.15 833.602 263.36 834.153C263.576 834.699 263.886 835.122 264.289 835.423C264.698 835.719 265.201 835.866 265.798 835.866Z" fill="white"/>
<rect x="174.598" y="881.453" width="103.66" height="25.9149" rx="8" fill="white"/>
<rect x="174.598" y="920.312" width="103.66" height="25.9149" rx="8" fill="white"/>
</g>
<g filter="url(#filter7_d_3156_1317)">
<rect x="404.102" y="486.57" width="213.319" height="213.319" rx="53" fill="#0094FF" stroke="black" stroke-width="6"/>
<path d="M485.981 523.136C485.913 522.448 485.621 521.914 485.103 521.533C484.586 521.153 483.885 520.962 482.998 520.962C482.396 520.962 481.888 521.048 481.473 521.218C481.058 521.383 480.74 521.613 480.518 521.908C480.302 522.204 480.194 522.539 480.194 522.914C480.183 523.227 480.248 523.499 480.39 523.732C480.538 523.965 480.74 524.167 480.996 524.337C481.251 524.502 481.547 524.647 481.882 524.772C482.217 524.891 482.575 524.994 482.956 525.079L484.524 525.454C485.285 525.624 485.984 525.852 486.621 526.136C487.257 526.42 487.808 526.769 488.274 527.184C488.74 527.599 489.101 528.087 489.356 528.65C489.618 529.212 489.751 529.857 489.757 530.585C489.751 531.653 489.478 532.579 488.939 533.363C488.405 534.141 487.632 534.746 486.621 535.178C485.615 535.604 484.402 535.817 482.981 535.817C481.572 535.817 480.345 535.602 479.3 535.17C478.26 534.738 477.447 534.099 476.862 533.252C476.282 532.4 475.978 531.346 475.95 530.09H479.521C479.561 530.675 479.728 531.164 480.024 531.556C480.325 531.942 480.726 532.235 481.226 532.434C481.731 532.627 482.302 532.724 482.939 532.724C483.564 532.724 484.106 532.633 484.567 532.451C485.032 532.269 485.393 532.016 485.649 531.692C485.905 531.369 486.032 530.996 486.032 530.576C486.032 530.184 485.916 529.854 485.683 529.587C485.456 529.32 485.121 529.093 484.677 528.906C484.24 528.718 483.703 528.548 483.067 528.394L481.166 527.917C479.694 527.559 478.532 526.999 477.68 526.238C476.828 525.477 476.405 524.451 476.41 523.161C476.405 522.104 476.686 521.181 477.254 520.391C477.828 519.602 478.615 518.985 479.615 518.542C480.615 518.099 481.751 517.877 483.024 517.877C484.319 517.877 485.45 518.099 486.416 518.542C487.388 518.985 488.143 519.602 488.683 520.391C489.223 521.181 489.501 522.096 489.518 523.136H485.981ZM492.171 540.479V522.479H495.751V524.678H495.912C496.072 524.326 496.302 523.968 496.603 523.604C496.91 523.235 497.307 522.928 497.796 522.684C498.29 522.434 498.904 522.309 499.637 522.309C500.591 522.309 501.472 522.559 502.279 523.059C503.086 523.553 503.731 524.3 504.214 525.3C504.697 526.295 504.938 527.542 504.938 529.042C504.938 530.502 504.702 531.735 504.231 532.741C503.765 533.741 503.128 534.499 502.322 535.016C501.52 535.528 500.623 535.783 499.628 535.783C498.924 535.783 498.324 535.667 497.83 535.434C497.341 535.201 496.941 534.908 496.628 534.556C496.316 534.198 496.077 533.837 495.912 533.474H495.802V540.479H492.171ZM495.725 529.025C495.725 529.803 495.833 530.482 496.049 531.062C496.265 531.641 496.577 532.093 496.986 532.417C497.395 532.735 497.893 532.894 498.478 532.894C499.069 532.894 499.569 532.732 499.978 532.408C500.387 532.079 500.697 531.624 500.907 531.045C501.123 530.46 501.231 529.786 501.231 529.025C501.231 528.269 501.126 527.604 500.915 527.031C500.705 526.457 500.395 526.008 499.986 525.684C499.577 525.36 499.074 525.198 498.478 525.198C497.887 525.198 497.387 525.354 496.978 525.667C496.574 525.979 496.265 526.423 496.049 526.996C495.833 527.57 495.725 528.246 495.725 529.025ZM507.358 535.57V522.479H510.878V524.763H511.015C511.253 523.951 511.654 523.337 512.216 522.923C512.779 522.502 513.427 522.292 514.16 522.292C514.341 522.292 514.537 522.303 514.748 522.326C514.958 522.349 515.143 522.38 515.302 522.42V525.641C515.131 525.59 514.895 525.545 514.594 525.505C514.293 525.465 514.018 525.445 513.768 525.445C513.233 525.445 512.756 525.562 512.336 525.795C511.921 526.022 511.591 526.34 511.347 526.749C511.108 527.158 510.989 527.63 510.989 528.164V535.57H507.358ZM517.179 535.57V522.479H520.809V535.57H517.179ZM519.003 520.792C518.463 520.792 518 520.613 517.613 520.255C517.233 519.891 517.042 519.457 517.042 518.951C517.042 518.451 517.233 518.022 517.613 517.664C518 517.3 518.463 517.119 519.003 517.119C519.542 517.119 520.003 517.3 520.383 517.664C520.77 518.022 520.963 518.451 520.963 518.951C520.963 519.457 520.77 519.891 520.383 520.255C520.003 520.613 519.542 520.792 519.003 520.792ZM527.349 528.002V535.57H523.718V522.479H527.178V524.789H527.331C527.621 524.028 528.107 523.425 528.789 522.982C529.471 522.533 530.297 522.309 531.269 522.309C532.178 522.309 532.971 522.508 533.647 522.906C534.323 523.303 534.849 523.871 535.224 524.61C535.599 525.343 535.786 526.218 535.786 527.235V535.57H532.155V527.883C532.161 527.082 531.956 526.457 531.542 526.008C531.127 525.553 530.556 525.326 529.829 525.326C529.34 525.326 528.908 525.431 528.533 525.641C528.164 525.852 527.874 526.158 527.664 526.562C527.459 526.96 527.354 527.44 527.349 528.002ZM545.611 522.479V525.207H537.727V522.479H545.611ZM539.517 519.343H543.148V531.548C543.148 531.883 543.199 532.144 543.301 532.332C543.403 532.513 543.545 532.641 543.727 532.715C543.915 532.789 544.13 532.826 544.375 532.826C544.545 532.826 544.716 532.812 544.886 532.783C545.057 532.749 545.187 532.724 545.278 532.707L545.849 535.408C545.667 535.465 545.412 535.531 545.082 535.604C544.753 535.684 544.352 535.732 543.88 535.749C543.005 535.783 542.238 535.667 541.579 535.4C540.926 535.133 540.417 534.718 540.054 534.156C539.69 533.593 539.511 532.883 539.517 532.025V519.343ZM465.134 564.57V547.116H472.122C473.406 547.116 474.477 547.306 475.335 547.687C476.193 548.067 476.838 548.596 477.27 549.272C477.702 549.942 477.918 550.715 477.918 551.59C477.918 552.272 477.781 552.871 477.509 553.388C477.236 553.9 476.861 554.32 476.384 554.65C475.912 554.974 475.372 555.204 474.764 555.34V555.511C475.429 555.539 476.051 555.727 476.631 556.073C477.216 556.42 477.69 556.906 478.054 557.531C478.418 558.15 478.6 558.888 478.6 559.746C478.6 560.673 478.369 561.499 477.909 562.227C477.455 562.948 476.781 563.519 475.889 563.94C474.997 564.36 473.898 564.57 472.591 564.57H465.134ZM468.824 561.553H471.833C472.861 561.553 473.611 561.357 474.083 560.965C474.554 560.567 474.79 560.039 474.79 559.38C474.79 558.897 474.673 558.471 474.44 558.102C474.208 557.732 473.875 557.442 473.443 557.232C473.017 557.022 472.509 556.917 471.918 556.917H468.824V561.553ZM468.824 554.42H471.56C472.065 554.42 472.514 554.332 472.906 554.156C473.304 553.974 473.617 553.718 473.844 553.388C474.077 553.059 474.193 552.664 474.193 552.204C474.193 551.573 473.969 551.065 473.52 550.678C473.077 550.292 472.446 550.099 471.628 550.099H468.824V554.42ZM484.666 564.817C483.83 564.817 483.086 564.673 482.433 564.383C481.779 564.087 481.262 563.653 480.882 563.079C480.507 562.499 480.319 561.778 480.319 560.914C480.319 560.187 480.453 559.576 480.72 559.082C480.987 558.587 481.35 558.19 481.811 557.888C482.271 557.587 482.793 557.36 483.379 557.207C483.97 557.053 484.589 556.945 485.237 556.883C485.998 556.803 486.612 556.729 487.078 556.661C487.543 556.587 487.882 556.479 488.092 556.337C488.302 556.195 488.407 555.985 488.407 555.707V555.656C488.407 555.116 488.237 554.698 487.896 554.403C487.561 554.107 487.083 553.96 486.464 553.96C485.811 553.96 485.291 554.104 484.904 554.394C484.518 554.678 484.262 555.036 484.137 555.468L480.779 555.195C480.95 554.4 481.285 553.712 481.785 553.133C482.285 552.548 482.93 552.099 483.72 551.786C484.515 551.468 485.436 551.309 486.481 551.309C487.208 551.309 487.904 551.394 488.569 551.565C489.24 551.735 489.833 551.999 490.35 552.357C490.873 552.715 491.285 553.175 491.586 553.738C491.887 554.295 492.038 554.962 492.038 555.741V564.57H488.595V562.755H488.492C488.282 563.164 488.001 563.525 487.649 563.837C487.296 564.144 486.873 564.386 486.379 564.562C485.884 564.732 485.313 564.817 484.666 564.817ZM485.705 562.312C486.24 562.312 486.711 562.207 487.12 561.996C487.529 561.781 487.85 561.491 488.083 561.127C488.316 560.763 488.433 560.352 488.433 559.891V558.502C488.319 558.576 488.163 558.644 487.964 558.707C487.771 558.763 487.552 558.817 487.308 558.869C487.063 558.914 486.819 558.957 486.575 558.996C486.33 559.031 486.109 559.062 485.91 559.09C485.484 559.153 485.112 559.252 484.793 559.388C484.475 559.525 484.228 559.71 484.052 559.942C483.876 560.17 483.788 560.454 483.788 560.795C483.788 561.289 483.967 561.667 484.325 561.928C484.688 562.184 485.149 562.312 485.705 562.312ZM500.769 564.826C499.428 564.826 498.275 564.542 497.309 563.974C496.349 563.4 495.61 562.604 495.093 561.587C494.582 560.57 494.326 559.4 494.326 558.076C494.326 556.735 494.585 555.559 495.102 554.548C495.624 553.531 496.366 552.738 497.326 552.17C498.286 551.596 499.428 551.309 500.752 551.309C501.894 551.309 502.894 551.516 503.752 551.931C504.61 552.346 505.289 552.928 505.789 553.678C506.289 554.428 506.565 555.309 506.616 556.32H503.19C503.093 555.667 502.838 555.141 502.423 554.744C502.014 554.34 501.477 554.138 500.812 554.138C500.249 554.138 499.758 554.292 499.338 554.599C498.923 554.9 498.599 555.34 498.366 555.92C498.133 556.499 498.016 557.201 498.016 558.025C498.016 558.86 498.13 559.57 498.357 560.156C498.59 560.741 498.917 561.187 499.338 561.494C499.758 561.8 500.249 561.954 500.812 561.954C501.227 561.954 501.599 561.869 501.928 561.698C502.264 561.528 502.539 561.281 502.755 560.957C502.977 560.627 503.122 560.232 503.19 559.772H506.616C506.559 560.772 506.286 561.653 505.798 562.414C505.315 563.17 504.647 563.761 503.795 564.187C502.943 564.613 501.934 564.826 500.769 564.826ZM512.23 560.803L512.239 556.448H512.767L516.96 551.479H521.128L515.494 558.059H514.634L512.23 560.803ZM508.94 564.57V547.116H512.571V564.57H508.94ZM517.122 564.57L513.27 558.869L515.69 556.303L521.375 564.57H517.122ZM526.54 547.116V564.57H522.909V547.116H526.54ZM535.363 564.826C534.039 564.826 532.894 564.545 531.928 563.982C530.968 563.414 530.227 562.624 529.704 561.613C529.181 560.596 528.92 559.417 528.92 558.076C528.92 556.724 529.181 555.542 529.704 554.531C530.227 553.513 530.968 552.724 531.928 552.161C532.894 551.593 534.039 551.309 535.363 551.309C536.687 551.309 537.829 551.593 538.789 552.161C539.755 552.724 540.499 553.513 541.022 554.531C541.545 555.542 541.806 556.724 541.806 558.076C541.806 559.417 541.545 560.596 541.022 561.613C540.499 562.624 539.755 563.414 538.789 563.982C537.829 564.545 536.687 564.826 535.363 564.826ZM535.38 562.013C535.982 562.013 536.485 561.843 536.889 561.502C537.292 561.156 537.596 560.684 537.801 560.087C538.011 559.491 538.116 558.812 538.116 558.05C538.116 557.289 538.011 556.61 537.801 556.013C537.596 555.417 537.292 554.945 536.889 554.599C536.485 554.252 535.982 554.079 535.38 554.079C534.772 554.079 534.261 554.252 533.846 554.599C533.437 554.945 533.127 555.417 532.917 556.013C532.713 556.61 532.61 557.289 532.61 558.05C532.61 558.812 532.713 559.491 532.917 560.087C533.127 560.684 533.437 561.156 533.846 561.502C534.261 561.843 534.772 562.013 535.38 562.013ZM550.065 569.752C548.889 569.752 547.88 569.59 547.039 569.266C546.204 568.948 545.539 568.513 545.045 567.962C544.551 567.411 544.23 566.792 544.082 566.104L547.44 565.653C547.542 565.914 547.704 566.158 547.926 566.386C548.147 566.613 548.44 566.795 548.803 566.931C549.173 567.073 549.622 567.144 550.15 567.144C550.94 567.144 551.59 566.951 552.102 566.565C552.619 566.184 552.877 565.545 552.877 564.647V562.252H552.724C552.565 562.616 552.326 562.96 552.008 563.283C551.69 563.607 551.281 563.871 550.781 564.076C550.281 564.281 549.684 564.383 548.991 564.383C548.008 564.383 547.113 564.156 546.306 563.701C545.505 563.241 544.866 562.539 544.389 561.596C543.917 560.647 543.681 559.448 543.681 557.999C543.681 556.516 543.923 555.278 544.406 554.283C544.889 553.289 545.531 552.545 546.332 552.05C547.139 551.556 548.022 551.309 548.982 551.309C549.715 551.309 550.329 551.434 550.823 551.684C551.318 551.928 551.715 552.235 552.016 552.604C552.323 552.968 552.559 553.326 552.724 553.678H552.86V551.479H556.465V564.698C556.465 565.812 556.193 566.744 555.647 567.494C555.102 568.244 554.346 568.806 553.38 569.181C552.42 569.562 551.315 569.752 550.065 569.752ZM550.141 561.656C550.727 561.656 551.221 561.511 551.624 561.221C552.034 560.925 552.346 560.505 552.562 559.96C552.784 559.408 552.894 558.749 552.894 557.982C552.894 557.215 552.786 556.55 552.57 555.988C552.355 555.42 552.042 554.979 551.633 554.667C551.224 554.354 550.727 554.198 550.141 554.198C549.545 554.198 549.042 554.36 548.633 554.684C548.224 555.002 547.914 555.445 547.704 556.013C547.494 556.582 547.389 557.238 547.389 557.982C547.389 558.738 547.494 559.391 547.704 559.942C547.92 560.488 548.23 560.911 548.633 561.212C549.042 561.508 549.545 561.656 550.141 561.656Z" fill="white"/>
<rect x="458.934" y="593.242" width="103.66" height="25.9149" rx="8" fill="white"/>
<rect x="458.934" y="632.102" width="103.66" height="25.9149" rx="8" fill="white"/>
</g>
<defs>
<filter id="filter0_d_3156_1317" x="386.102" y="756.781" width="249.32" height="249.32" filterUnits="userSpaceOnUse" color-interpolation-filters="sRGB">
<feFlood flood-opacity="0" result="BackgroundImageFix"/>
<feColorMatrix in="SourceAlpha" type="matrix" values="0 0 0 0 0 0 0 0 0 0 0 0 0 0 0 0 0 0 127 0" result="hardAlpha"/>
<feOffset/>
<feGaussianBlur stdDeviation="7.5"/>
<feComposite in2="hardAlpha" operator="out"/>
<feColorMatrix type="matrix" values="0 0 0 0 0 0 0 0 0 0 0 0 0 0 0 0 0 0 0.25 0"/>
<feBlend mode="normal" in2="BackgroundImageFix" result="effect1_dropShadow_3156_1317"/>
<feBlend mode="normal" in="SourceGraphic" in2="effect1_dropShadow_3156_1317" result="shape"/>
</filter>
<filter id="filter1_d_3156_1317" x="667.816" y="756.781" width="249.32" height="249.32" filterUnits="userSpaceOnUse" color-interpolation-filters="sRGB">
<feFlood flood-opacity="0" result="BackgroundImageFix"/>
<feColorMatrix in="SourceAlpha" type="matrix" values="0 0 0 0 0 0 0 0 0 0 0 0 0 0 0 0 0 0 127 0" result="hardAlpha"/>
<feOffset/>
<feGaussianBlur stdDeviation="7.5"/>
<feComposite in2="hardAlpha" operator="out"/>
<feColorMatrix type="matrix" values="0 0 0 0 0 0 0 0 0 0 0 0 0 0 0 0 0 0 0.25 0"/>
<feBlend mode="normal" in2="BackgroundImageFix" result="effect1_dropShadow_3156_1317"/>
<feBlend mode="normal" in="SourceGraphic" in2="effect1_dropShadow_3156_1317" result="shape"/>
</filter>
<filter id="filter2_d_3156_1317" x="670.406" y="468.57" width="249.32" height="249.32" filterUnits="userSpaceOnUse" color-interpolation-filters="sRGB">
<feFlood flood-opacity="0" result="BackgroundImageFix"/>
<feColorMatrix in="SourceAlpha" type="matrix" values="0 0 0 0 0 0 0 0 0 0 0 0 0 0 0 0 0 0 127 0" result="hardAlpha"/>
<feOffset/>
<feGaussianBlur stdDeviation="7.5"/>
<feComposite in2="hardAlpha" operator="out"/>
<feColorMatrix type="matrix" values="0 0 0 0 0 0 0 0 0 0 0 0 0 0 0 0 0 0 0.25 0"/>
<feBlend mode="normal" in2="BackgroundImageFix" result="effect1_dropShadow_3156_1317"/>
<feBlend mode="normal" in="SourceGraphic" in2="effect1_dropShadow_3156_1317" result="shape"/>
</filter>
<filter id="filter3_d_3156_1317" x="540.191" y="180.992" width="249.32" height="249.32" filterUnits="userSpaceOnUse" color-interpolation-filters="sRGB">
<feFlood flood-opacity="0" result="BackgroundImageFix"/>
<feColorMatrix in="SourceAlpha" type="matrix" values="0 0 0 0 0 0 0 0 0 0 0 0 0 0 0 0 0 0 127 0" result="hardAlpha"/>
<feOffset/>
<feGaussianBlur stdDeviation="7.5"/>
<feComposite in2="hardAlpha" operator="out"/>
<feColorMatrix type="matrix" values="0 0 0 0 0 0 0 0 0 0 0 0 0 0 0 0 0 0 0.25 0"/>
<feBlend mode="normal" in2="BackgroundImageFix" result="effect1_dropShadow_3156_1317"/>
<feBlend mode="normal" in="SourceGraphic" in2="effect1_dropShadow_3156_1317" result="shape"/>
</filter>
<filter id="filter4_d_3156_1317" x="233.289" y="180.992" width="249.32" height="249.32" filterUnits="userSpaceOnUse" color-interpolation-filters="sRGB">
<feFlood flood-opacity="0" result="BackgroundImageFix"/>
<feColorMatrix in="SourceAlpha" type="matrix" values="0 0 0 0 0 0 0 0 0 0 0 0 0 0 0 0 0 0 127 0" result="hardAlpha"/>
<feOffset/>
<feGaussianBlur stdDeviation="7.5"/>
<feComposite in2="hardAlpha" operator="out"/>
<feColorMatrix type="matrix" values="0 0 0 0 0 0 0 0 0 0 0 0 0 0 0 0 0 0 0.25 0"/>
<feBlend mode="normal" in2="BackgroundImageFix" result="effect1_dropShadow_3156_1317"/>
<feBlend mode="normal" in="SourceGraphic" in2="effect1_dropShadow_3156_1317" result="shape"/>
</filter>
<filter id="filter5_d_3156_1317" x="101.758" y="468.57" width="249.32" height="249.32" filterUnits="userSpaceOnUse" color-interpolation-filters="sRGB">
<feFlood flood-opacity="0" result="BackgroundImageFix"/>
<feColorMatrix in="SourceAlpha" type="matrix" values="0 0 0 0 0 0 0 0 0 0 0 0 0 0 0 0 0 0 127 0" result="hardAlpha"/>
<feOffset/>
<feGaussianBlur stdDeviation="7.5"/>
<feComposite in2="hardAlpha" operator="out"/>
<feColorMatrix type="matrix" values="0 0 0 0 0 0 0 0 0 0 0 0 0 0 0 0 0 0 0.25 0"/>
<feBlend mode="normal" in2="BackgroundImageFix" result="effect1_dropShadow_3156_1317"/>
<feBlend mode="normal" in="SourceGraphic" in2="effect1_dropShadow_3156_1317" result="shape"/>
</filter>
<filter id="filter6_d_3156_1317" x="101.758" y="756.781" width="249.32" height="249.32" filterUnits="userSpaceOnUse" color-interpolation-filters="sRGB">
<feFlood flood-opacity="0" result="BackgroundImageFix"/>
<feColorMatrix in="SourceAlpha" type="matrix" values="0 0 0 0 0 0 0 0 0 0 0 0 0 0 0 0 0 0 127 0" result="hardAlpha"/>
<feOffset/>
<feGaussianBlur stdDeviation="7.5"/>
<feComposite in2="hardAlpha" operator="out"/>
<feColorMatrix type="matrix" values="0 0 0 0 0 0 0 0 0 0 0 0 0 0 0 0 0 0 0.25 0"/>
<feBlend mode="normal" in2="BackgroundImageFix" result="effect1_dropShadow_3156_1317"/>
<feBlend mode="normal" in="SourceGraphic" in2="effect1_dropShadow_3156_1317" result="shape"/>
</filter>
<filter id="filter7_d_3156_1317" x="386.102" y="468.57" width="249.32" height="249.32" filterUnits="userSpaceOnUse" color-interpolation-filters="sRGB">
<feFlood flood-opacity="0" result="BackgroundImageFix"/>
<feColorMatrix in="SourceAlpha" type="matrix" values="0 0 0 0 0 0 0 0 0 0 0 0 0 0 0 0 0 0 127 0" result="hardAlpha"/>
<feOffset/>
<feGaussianBlur stdDeviation="7.5"/>
<feComposite in2="hardAlpha" operator="out"/>
<feColorMatrix type="matrix" values="0 0 0 0 0 0 0 0 0 0 0 0 0 0 0 0 0 0 0.25 0"/>
<feBlend mode="normal" in2="BackgroundImageFix" result="effect1_dropShadow_3156_1317"/>
<feBlend mode="normal" in="SourceGraphic" in2="effect1_dropShadow_3156_1317" result="shape"/>
</filter>
</defs>
</svg>
